M48
;GenerationSoftware,Autodesk,EAGLE,9.6.2*%
;CreationDate,2022-07-07T10:43:34Z*%
FMAT,2
ICI,OFF
METRIC,TZ,000.000
T2C0.350
T1C1.050
%
G90
M71
T1
X4699Y7366
X4699Y4826
X2159Y4826
X4699Y2286
X2159Y2286
X47879Y25146
X45339Y25146
X47879Y22606
X2159Y7366
X45339Y22606
X47879Y20066
X45339Y20066
X47879Y17526
X45339Y17526
X47879Y14986
X45339Y14986
X47879Y12446
X47879Y9906
X45339Y9906
X47879Y7366
X45339Y7366
X47879Y4826
X45339Y4826
X47879Y2286
X45339Y2286
X2159Y17526
X4699Y25146
X2159Y25146
X4699Y22606
X2159Y22606
X4699Y20066
X2159Y20066
X4699Y17526
X45339Y12446
X4699Y14986
X2159Y14986
X4699Y12446
X2159Y12446
X4699Y9906
X2159Y9906
T2
X32639Y9906
X17399Y7366
X17399Y2286
X32639Y20066
X32639Y17526
X27559Y7366
X17399Y9906
X33020Y15240
X14859Y16256
X21717Y21844
X38989Y11176
X22479Y17526
X14859Y18796
X12319Y8636
X12319Y4826
X9779Y22606
X14859Y22606
X41529Y16256
X37719Y23876
X40259Y6096
X33909Y6096
X33909Y25146
X17399Y25146
X26289Y2286
X8509Y2286
X33020Y12700
M30