M48
;GenerationSoftware,Autodesk,EAGLE,9.6.2*%
;CreationDate,2023-06-22T11:18:12Z*%
FMAT,2
ICI,OFF
METRIC,TZ,000.000
T2C0.350
T1C1.050
%
G90
M71
T1
X4699Y20066
X47879Y9906
X47879Y7366
X45339Y7366
X47879Y4826
X45339Y4826
X4699Y4826
X47879Y2286
X4699Y25146
X2159Y25146
X4699Y22606
X2159Y22606
X45339Y2286
X2159Y20066
X4699Y17526
X2159Y17526
X4699Y14986
X2159Y14986
X4699Y12446
X2159Y12446
X4699Y9906
X2159Y9906
X4699Y7366
X2159Y7366
X45339Y9906
X2159Y4826
X4699Y2286
X2159Y2286
X47879Y25146
X45339Y25146
X47879Y22606
X45339Y22606
X47879Y20066
X45339Y20066
X47879Y17526
X45339Y17526
X47879Y14986
X45339Y14986
X47879Y12446
X45339Y12446
T2
X21717Y10922
X32004Y18923
X26543Y18923
X32004Y17526
X26543Y17526
X26162Y13970
X18161Y8890
X18161Y10922
M30