G04 EAGLE Gerber RS-274X export*
G75*
%MOMM*%
%FSLAX34Y34*%
%LPD*%
%INSilkscreen Bottom*%
%IPPOS*%
%AMOC8*
5,1,8,0,0,1.08239X$1,22.5*%
G01*
%ADD10C,0.076200*%
%ADD11C,0.200000*%


D10*
X342519Y25781D02*
X337608Y33147D01*
X342519Y33147D02*
X337608Y25781D01*
X334795Y27418D02*
X333158Y33147D01*
X334795Y27418D02*
X330702Y27418D01*
X331930Y29055D02*
X331930Y25781D01*
X327220Y25781D02*
X327220Y33147D01*
X323946Y33147D01*
X323946Y29873D02*
X327220Y29873D01*
X321140Y31510D02*
X319093Y33147D01*
X319093Y25781D01*
X317047Y25781D02*
X321140Y25781D01*
X313824Y29464D02*
X313822Y29617D01*
X313816Y29770D01*
X313807Y29922D01*
X313793Y30075D01*
X313776Y30227D01*
X313755Y30378D01*
X313730Y30529D01*
X313701Y30679D01*
X313669Y30829D01*
X313632Y30977D01*
X313592Y31125D01*
X313549Y31272D01*
X313501Y31417D01*
X313450Y31561D01*
X313396Y31704D01*
X313337Y31846D01*
X313276Y31985D01*
X313210Y32124D01*
X313184Y32194D01*
X313154Y32263D01*
X313122Y32331D01*
X313085Y32397D01*
X313046Y32461D01*
X313003Y32523D01*
X312958Y32582D01*
X312909Y32640D01*
X312858Y32694D01*
X312804Y32747D01*
X312747Y32796D01*
X312688Y32843D01*
X312627Y32886D01*
X312564Y32927D01*
X312499Y32964D01*
X312432Y32999D01*
X312363Y33029D01*
X312293Y33057D01*
X312222Y33080D01*
X312150Y33101D01*
X312077Y33117D01*
X312003Y33130D01*
X311928Y33140D01*
X311853Y33145D01*
X311778Y33147D01*
X311703Y33145D01*
X311628Y33140D01*
X311553Y33130D01*
X311479Y33117D01*
X311406Y33101D01*
X311334Y33080D01*
X311263Y33057D01*
X311193Y33029D01*
X311124Y32999D01*
X311057Y32964D01*
X310992Y32927D01*
X310929Y32886D01*
X310868Y32843D01*
X310809Y32796D01*
X310752Y32747D01*
X310698Y32694D01*
X310647Y32640D01*
X310599Y32582D01*
X310553Y32523D01*
X310510Y32461D01*
X310471Y32397D01*
X310435Y32331D01*
X310402Y32264D01*
X310372Y32194D01*
X310346Y32124D01*
X310281Y31986D01*
X310219Y31846D01*
X310161Y31704D01*
X310106Y31561D01*
X310055Y31417D01*
X310007Y31272D01*
X309964Y31125D01*
X309924Y30978D01*
X309887Y30829D01*
X309855Y30679D01*
X309826Y30529D01*
X309801Y30378D01*
X309780Y30227D01*
X309763Y30075D01*
X309749Y29922D01*
X309740Y29770D01*
X309734Y29617D01*
X309732Y29464D01*
X313825Y29464D02*
X313823Y29311D01*
X313817Y29158D01*
X313808Y29005D01*
X313794Y28853D01*
X313777Y28701D01*
X313756Y28550D01*
X313731Y28399D01*
X313702Y28248D01*
X313670Y28099D01*
X313633Y27950D01*
X313593Y27803D01*
X313550Y27656D01*
X313502Y27511D01*
X313451Y27366D01*
X313396Y27224D01*
X313338Y27082D01*
X313276Y26942D01*
X313211Y26804D01*
X313210Y26804D02*
X313184Y26734D01*
X313154Y26664D01*
X313122Y26597D01*
X313085Y26531D01*
X313046Y26467D01*
X313003Y26405D01*
X312957Y26346D01*
X312909Y26288D01*
X312858Y26234D01*
X312804Y26181D01*
X312747Y26132D01*
X312688Y26085D01*
X312627Y26042D01*
X312564Y26001D01*
X312499Y25964D01*
X312432Y25929D01*
X312363Y25899D01*
X312293Y25871D01*
X312222Y25848D01*
X312150Y25827D01*
X312077Y25811D01*
X312003Y25798D01*
X311928Y25788D01*
X311853Y25783D01*
X311778Y25781D01*
X310346Y26804D02*
X310281Y26942D01*
X310219Y27082D01*
X310161Y27224D01*
X310106Y27367D01*
X310055Y27511D01*
X310007Y27656D01*
X309964Y27803D01*
X309924Y27951D01*
X309887Y28099D01*
X309855Y28249D01*
X309826Y28399D01*
X309801Y28550D01*
X309780Y28701D01*
X309763Y28853D01*
X309749Y29006D01*
X309740Y29158D01*
X309734Y29311D01*
X309732Y29464D01*
X310346Y26804D02*
X310372Y26733D01*
X310402Y26664D01*
X310435Y26597D01*
X310471Y26531D01*
X310510Y26467D01*
X310553Y26405D01*
X310599Y26346D01*
X310647Y26288D01*
X310698Y26234D01*
X310752Y26181D01*
X310809Y26132D01*
X310868Y26085D01*
X310929Y26042D01*
X310992Y26001D01*
X311057Y25964D01*
X311124Y25929D01*
X311193Y25899D01*
X311263Y25871D01*
X311334Y25848D01*
X311406Y25827D01*
X311479Y25811D01*
X311553Y25798D01*
X311628Y25788D01*
X311703Y25783D01*
X311778Y25781D01*
X313415Y27418D02*
X310141Y31510D01*
X306509Y25781D02*
X304463Y25781D01*
X304374Y25783D01*
X304285Y25789D01*
X304196Y25799D01*
X304108Y25812D01*
X304020Y25829D01*
X303933Y25851D01*
X303848Y25876D01*
X303763Y25904D01*
X303680Y25937D01*
X303598Y25973D01*
X303518Y26012D01*
X303440Y26055D01*
X303364Y26101D01*
X303289Y26151D01*
X303217Y26204D01*
X303148Y26260D01*
X303081Y26319D01*
X303016Y26380D01*
X302955Y26445D01*
X302896Y26512D01*
X302840Y26581D01*
X302787Y26653D01*
X302737Y26728D01*
X302691Y26804D01*
X302648Y26882D01*
X302609Y26962D01*
X302573Y27044D01*
X302540Y27127D01*
X302512Y27212D01*
X302487Y27297D01*
X302465Y27384D01*
X302448Y27472D01*
X302435Y27560D01*
X302425Y27649D01*
X302419Y27738D01*
X302417Y27827D01*
X302419Y27916D01*
X302425Y28005D01*
X302435Y28094D01*
X302448Y28182D01*
X302465Y28270D01*
X302487Y28357D01*
X302512Y28442D01*
X302540Y28527D01*
X302573Y28610D01*
X302609Y28692D01*
X302648Y28772D01*
X302691Y28850D01*
X302737Y28926D01*
X302787Y29001D01*
X302840Y29073D01*
X302896Y29142D01*
X302955Y29209D01*
X303016Y29274D01*
X303081Y29335D01*
X303148Y29394D01*
X303217Y29450D01*
X303289Y29503D01*
X303364Y29553D01*
X303440Y29599D01*
X303518Y29642D01*
X303598Y29681D01*
X303680Y29717D01*
X303763Y29750D01*
X303848Y29778D01*
X303933Y29803D01*
X304020Y29825D01*
X304108Y29842D01*
X304196Y29855D01*
X304285Y29865D01*
X304374Y29871D01*
X304463Y29873D01*
X304054Y33147D02*
X306509Y33147D01*
X304054Y33147D02*
X303975Y33145D01*
X303896Y33139D01*
X303817Y33130D01*
X303739Y33117D01*
X303662Y33099D01*
X303586Y33079D01*
X303511Y33054D01*
X303437Y33026D01*
X303364Y32995D01*
X303293Y32959D01*
X303224Y32921D01*
X303157Y32879D01*
X303092Y32834D01*
X303029Y32786D01*
X302968Y32735D01*
X302911Y32681D01*
X302855Y32625D01*
X302803Y32566D01*
X302753Y32504D01*
X302707Y32440D01*
X302663Y32374D01*
X302623Y32306D01*
X302587Y32236D01*
X302553Y32164D01*
X302523Y32090D01*
X302497Y32016D01*
X302474Y31940D01*
X302456Y31863D01*
X302440Y31786D01*
X302429Y31707D01*
X302421Y31629D01*
X302417Y31550D01*
X302417Y31470D01*
X302421Y31391D01*
X302429Y31313D01*
X302440Y31234D01*
X302456Y31157D01*
X302474Y31080D01*
X302497Y31004D01*
X302523Y30930D01*
X302553Y30856D01*
X302587Y30784D01*
X302623Y30714D01*
X302663Y30646D01*
X302707Y30580D01*
X302753Y30516D01*
X302803Y30454D01*
X302855Y30395D01*
X302911Y30339D01*
X302968Y30285D01*
X303029Y30234D01*
X303092Y30186D01*
X303157Y30141D01*
X303224Y30099D01*
X303293Y30061D01*
X303364Y30025D01*
X303437Y29994D01*
X303511Y29966D01*
X303586Y29941D01*
X303662Y29921D01*
X303739Y29903D01*
X303817Y29890D01*
X303896Y29881D01*
X303975Y29875D01*
X304054Y29873D01*
X305691Y29873D01*
X293734Y33147D02*
X293734Y25781D01*
X295780Y33147D02*
X291688Y33147D01*
X288370Y33147D02*
X288370Y25781D01*
X289188Y25781D02*
X287551Y25781D01*
X287551Y33147D02*
X289188Y33147D01*
X280403Y33147D02*
X280403Y25781D01*
X277129Y25781D01*
X273009Y28646D02*
X271168Y28646D01*
X273009Y28645D02*
X273084Y28643D01*
X273159Y28637D01*
X273233Y28627D01*
X273307Y28614D01*
X273380Y28596D01*
X273452Y28575D01*
X273522Y28550D01*
X273591Y28521D01*
X273659Y28489D01*
X273725Y28453D01*
X273789Y28414D01*
X273851Y28372D01*
X273910Y28326D01*
X273967Y28277D01*
X274022Y28226D01*
X274073Y28171D01*
X274122Y28114D01*
X274168Y28055D01*
X274210Y27993D01*
X274249Y27929D01*
X274285Y27863D01*
X274317Y27795D01*
X274346Y27726D01*
X274371Y27656D01*
X274392Y27584D01*
X274410Y27511D01*
X274423Y27437D01*
X274433Y27363D01*
X274439Y27288D01*
X274441Y27213D01*
X274439Y27138D01*
X274433Y27063D01*
X274423Y26989D01*
X274410Y26915D01*
X274392Y26842D01*
X274371Y26770D01*
X274346Y26700D01*
X274317Y26631D01*
X274285Y26563D01*
X274249Y26497D01*
X274210Y26433D01*
X274168Y26371D01*
X274122Y26312D01*
X274073Y26255D01*
X274022Y26200D01*
X273967Y26149D01*
X273910Y26100D01*
X273851Y26054D01*
X273789Y26012D01*
X273725Y25973D01*
X273659Y25937D01*
X273591Y25905D01*
X273522Y25876D01*
X273452Y25851D01*
X273380Y25830D01*
X273307Y25812D01*
X273233Y25799D01*
X273159Y25789D01*
X273084Y25783D01*
X273009Y25781D01*
X271168Y25781D01*
X271168Y29464D01*
X271170Y29533D01*
X271176Y29601D01*
X271185Y29670D01*
X271199Y29737D01*
X271216Y29804D01*
X271237Y29870D01*
X271261Y29934D01*
X271290Y29997D01*
X271321Y30058D01*
X271356Y30117D01*
X271394Y30175D01*
X271436Y30230D01*
X271480Y30282D01*
X271528Y30332D01*
X271578Y30380D01*
X271630Y30424D01*
X271685Y30466D01*
X271743Y30504D01*
X271802Y30539D01*
X271863Y30570D01*
X271926Y30599D01*
X271990Y30623D01*
X272056Y30644D01*
X272123Y30661D01*
X272190Y30675D01*
X272259Y30684D01*
X272327Y30690D01*
X272396Y30692D01*
X274032Y30692D01*
X267573Y30692D02*
X267573Y27009D01*
X267574Y27009D02*
X267572Y26940D01*
X267566Y26872D01*
X267557Y26803D01*
X267543Y26736D01*
X267526Y26669D01*
X267505Y26603D01*
X267481Y26539D01*
X267452Y26476D01*
X267421Y26415D01*
X267386Y26356D01*
X267348Y26298D01*
X267306Y26243D01*
X267262Y26191D01*
X267214Y26141D01*
X267164Y26093D01*
X267112Y26049D01*
X267057Y26008D01*
X266999Y25969D01*
X266940Y25934D01*
X266879Y25903D01*
X266816Y25874D01*
X266752Y25850D01*
X266686Y25829D01*
X266619Y25812D01*
X266552Y25798D01*
X266484Y25789D01*
X266415Y25783D01*
X266346Y25781D01*
X264299Y25781D01*
X264299Y30692D01*
X260746Y30692D02*
X260746Y25781D01*
X260746Y30692D02*
X258700Y30692D01*
X258631Y30690D01*
X258563Y30684D01*
X258494Y30675D01*
X258427Y30661D01*
X258360Y30644D01*
X258294Y30623D01*
X258230Y30599D01*
X258167Y30570D01*
X258106Y30539D01*
X258047Y30504D01*
X257989Y30466D01*
X257934Y30424D01*
X257882Y30380D01*
X257832Y30332D01*
X257784Y30282D01*
X257740Y30230D01*
X257699Y30175D01*
X257660Y30117D01*
X257625Y30058D01*
X257594Y29997D01*
X257565Y29934D01*
X257541Y29870D01*
X257520Y29804D01*
X257503Y29737D01*
X257489Y29670D01*
X257480Y29602D01*
X257474Y29533D01*
X257472Y29464D01*
X257472Y25781D01*
X252925Y25781D02*
X251288Y25781D01*
X252925Y25781D02*
X252994Y25783D01*
X253062Y25789D01*
X253131Y25798D01*
X253198Y25812D01*
X253265Y25829D01*
X253331Y25850D01*
X253395Y25874D01*
X253458Y25903D01*
X253519Y25934D01*
X253578Y25969D01*
X253636Y26007D01*
X253691Y26049D01*
X253743Y26093D01*
X253793Y26141D01*
X253841Y26191D01*
X253885Y26243D01*
X253927Y26298D01*
X253965Y26356D01*
X254000Y26415D01*
X254031Y26476D01*
X254060Y26539D01*
X254084Y26603D01*
X254105Y26669D01*
X254122Y26736D01*
X254136Y26803D01*
X254145Y26872D01*
X254151Y26940D01*
X254153Y27009D01*
X254153Y29464D01*
X254151Y29533D01*
X254145Y29601D01*
X254136Y29670D01*
X254122Y29737D01*
X254105Y29804D01*
X254084Y29870D01*
X254060Y29934D01*
X254031Y29997D01*
X254000Y30058D01*
X253965Y30117D01*
X253927Y30175D01*
X253885Y30230D01*
X253841Y30282D01*
X253793Y30332D01*
X253743Y30380D01*
X253691Y30424D01*
X253636Y30466D01*
X253578Y30504D01*
X253519Y30539D01*
X253458Y30570D01*
X253395Y30599D01*
X253331Y30623D01*
X253265Y30644D01*
X253198Y30661D01*
X253131Y30675D01*
X253062Y30684D01*
X252994Y30690D01*
X252925Y30692D01*
X251288Y30692D01*
X248310Y33147D02*
X248310Y25781D01*
X248310Y30692D02*
X246264Y30692D01*
X246195Y30690D01*
X246127Y30684D01*
X246058Y30675D01*
X245991Y30661D01*
X245924Y30644D01*
X245858Y30623D01*
X245794Y30599D01*
X245731Y30570D01*
X245670Y30539D01*
X245611Y30504D01*
X245553Y30466D01*
X245498Y30424D01*
X245446Y30380D01*
X245396Y30332D01*
X245348Y30282D01*
X245304Y30230D01*
X245263Y30175D01*
X245224Y30117D01*
X245189Y30058D01*
X245158Y29997D01*
X245129Y29934D01*
X245105Y29870D01*
X245084Y29804D01*
X245067Y29737D01*
X245053Y29670D01*
X245044Y29602D01*
X245038Y29533D01*
X245036Y29464D01*
X245036Y25781D01*
X241442Y23326D02*
X241442Y30692D01*
X239395Y30692D01*
X239326Y30690D01*
X239258Y30684D01*
X239189Y30675D01*
X239122Y30661D01*
X239055Y30644D01*
X238989Y30623D01*
X238925Y30599D01*
X238862Y30570D01*
X238801Y30539D01*
X238742Y30504D01*
X238684Y30466D01*
X238629Y30424D01*
X238577Y30380D01*
X238527Y30332D01*
X238479Y30282D01*
X238435Y30230D01*
X238394Y30175D01*
X238355Y30117D01*
X238320Y30058D01*
X238289Y29997D01*
X238260Y29934D01*
X238236Y29870D01*
X238215Y29804D01*
X238198Y29737D01*
X238184Y29670D01*
X238175Y29602D01*
X238169Y29533D01*
X238167Y29464D01*
X238168Y29464D02*
X238168Y27009D01*
X238167Y27009D02*
X238169Y26940D01*
X238175Y26872D01*
X238184Y26803D01*
X238198Y26736D01*
X238215Y26669D01*
X238236Y26603D01*
X238260Y26539D01*
X238289Y26476D01*
X238320Y26415D01*
X238355Y26356D01*
X238393Y26298D01*
X238435Y26243D01*
X238479Y26191D01*
X238527Y26141D01*
X238577Y26093D01*
X238629Y26049D01*
X238684Y26007D01*
X238742Y25969D01*
X238801Y25934D01*
X238862Y25903D01*
X238925Y25874D01*
X238989Y25850D01*
X239055Y25829D01*
X239122Y25812D01*
X239189Y25798D01*
X239258Y25789D01*
X239326Y25783D01*
X239395Y25781D01*
X241442Y25781D01*
X233751Y28646D02*
X231910Y28646D01*
X233751Y28645D02*
X233826Y28643D01*
X233901Y28637D01*
X233975Y28627D01*
X234049Y28614D01*
X234122Y28596D01*
X234194Y28575D01*
X234264Y28550D01*
X234333Y28521D01*
X234401Y28489D01*
X234467Y28453D01*
X234531Y28414D01*
X234593Y28372D01*
X234652Y28326D01*
X234709Y28277D01*
X234764Y28226D01*
X234815Y28171D01*
X234864Y28114D01*
X234910Y28055D01*
X234952Y27993D01*
X234991Y27929D01*
X235027Y27863D01*
X235059Y27795D01*
X235088Y27726D01*
X235113Y27656D01*
X235134Y27584D01*
X235152Y27511D01*
X235165Y27437D01*
X235175Y27363D01*
X235181Y27288D01*
X235183Y27213D01*
X235181Y27138D01*
X235175Y27063D01*
X235165Y26989D01*
X235152Y26915D01*
X235134Y26842D01*
X235113Y26770D01*
X235088Y26700D01*
X235059Y26631D01*
X235027Y26563D01*
X234991Y26497D01*
X234952Y26433D01*
X234910Y26371D01*
X234864Y26312D01*
X234815Y26255D01*
X234764Y26200D01*
X234709Y26149D01*
X234652Y26100D01*
X234593Y26054D01*
X234531Y26012D01*
X234467Y25973D01*
X234401Y25937D01*
X234333Y25905D01*
X234264Y25876D01*
X234194Y25851D01*
X234122Y25830D01*
X234049Y25812D01*
X233975Y25799D01*
X233901Y25789D01*
X233826Y25783D01*
X233751Y25781D01*
X231910Y25781D01*
X231910Y29464D01*
X231909Y29464D02*
X231911Y29533D01*
X231917Y29601D01*
X231926Y29670D01*
X231940Y29737D01*
X231957Y29804D01*
X231978Y29870D01*
X232002Y29934D01*
X232031Y29997D01*
X232062Y30058D01*
X232097Y30117D01*
X232135Y30175D01*
X232177Y30230D01*
X232221Y30282D01*
X232269Y30332D01*
X232319Y30380D01*
X232371Y30424D01*
X232426Y30466D01*
X232484Y30504D01*
X232543Y30539D01*
X232604Y30570D01*
X232667Y30599D01*
X232731Y30623D01*
X232797Y30644D01*
X232864Y30661D01*
X232931Y30675D01*
X233000Y30684D01*
X233068Y30690D01*
X233137Y30692D01*
X234774Y30692D01*
X225326Y33147D02*
X225326Y25781D01*
X227372Y25781D01*
X227441Y25783D01*
X227509Y25789D01*
X227578Y25798D01*
X227645Y25812D01*
X227712Y25829D01*
X227778Y25850D01*
X227842Y25874D01*
X227905Y25903D01*
X227966Y25934D01*
X228025Y25969D01*
X228083Y26007D01*
X228138Y26049D01*
X228190Y26093D01*
X228240Y26141D01*
X228288Y26191D01*
X228332Y26243D01*
X228374Y26298D01*
X228412Y26356D01*
X228447Y26415D01*
X228478Y26476D01*
X228507Y26539D01*
X228531Y26603D01*
X228552Y26669D01*
X228569Y26736D01*
X228583Y26803D01*
X228592Y26872D01*
X228598Y26940D01*
X228600Y27009D01*
X228600Y29464D01*
X228598Y29533D01*
X228592Y29601D01*
X228583Y29670D01*
X228569Y29737D01*
X228552Y29804D01*
X228531Y29870D01*
X228507Y29934D01*
X228478Y29997D01*
X228447Y30058D01*
X228412Y30117D01*
X228374Y30175D01*
X228332Y30230D01*
X228288Y30282D01*
X228240Y30332D01*
X228190Y30380D01*
X228138Y30424D01*
X228083Y30466D01*
X228025Y30504D01*
X227966Y30539D01*
X227905Y30570D01*
X227842Y30599D01*
X227778Y30623D01*
X227712Y30644D01*
X227645Y30661D01*
X227578Y30675D01*
X227509Y30684D01*
X227441Y30690D01*
X227372Y30692D01*
X225326Y30692D01*
X217634Y29873D02*
X215588Y29873D01*
X215499Y29871D01*
X215410Y29865D01*
X215321Y29855D01*
X215233Y29842D01*
X215145Y29825D01*
X215058Y29803D01*
X214973Y29778D01*
X214888Y29750D01*
X214805Y29717D01*
X214723Y29681D01*
X214643Y29642D01*
X214565Y29599D01*
X214489Y29553D01*
X214414Y29503D01*
X214342Y29450D01*
X214273Y29394D01*
X214206Y29335D01*
X214141Y29274D01*
X214080Y29209D01*
X214021Y29142D01*
X213965Y29073D01*
X213912Y29001D01*
X213862Y28926D01*
X213816Y28850D01*
X213773Y28772D01*
X213734Y28692D01*
X213698Y28610D01*
X213665Y28527D01*
X213637Y28442D01*
X213612Y28357D01*
X213590Y28270D01*
X213573Y28182D01*
X213560Y28094D01*
X213550Y28005D01*
X213544Y27916D01*
X213542Y27827D01*
X213544Y27738D01*
X213550Y27649D01*
X213560Y27560D01*
X213573Y27472D01*
X213590Y27384D01*
X213612Y27297D01*
X213637Y27212D01*
X213665Y27127D01*
X213698Y27044D01*
X213734Y26962D01*
X213773Y26882D01*
X213816Y26804D01*
X213862Y26728D01*
X213912Y26653D01*
X213965Y26581D01*
X214021Y26512D01*
X214080Y26445D01*
X214141Y26380D01*
X214206Y26319D01*
X214273Y26260D01*
X214342Y26204D01*
X214414Y26151D01*
X214489Y26101D01*
X214565Y26055D01*
X214643Y26012D01*
X214723Y25973D01*
X214805Y25937D01*
X214888Y25904D01*
X214973Y25876D01*
X215058Y25851D01*
X215145Y25829D01*
X215233Y25812D01*
X215321Y25799D01*
X215410Y25789D01*
X215499Y25783D01*
X215588Y25781D01*
X217634Y25781D01*
X217634Y33147D01*
X215588Y33147D01*
X215509Y33145D01*
X215430Y33139D01*
X215351Y33130D01*
X215273Y33117D01*
X215196Y33099D01*
X215120Y33079D01*
X215045Y33054D01*
X214971Y33026D01*
X214898Y32995D01*
X214827Y32959D01*
X214758Y32921D01*
X214691Y32879D01*
X214626Y32834D01*
X214563Y32786D01*
X214502Y32735D01*
X214445Y32681D01*
X214389Y32625D01*
X214337Y32566D01*
X214287Y32504D01*
X214241Y32440D01*
X214197Y32374D01*
X214157Y32306D01*
X214121Y32236D01*
X214087Y32164D01*
X214057Y32090D01*
X214031Y32016D01*
X214008Y31940D01*
X213990Y31863D01*
X213974Y31786D01*
X213963Y31707D01*
X213955Y31629D01*
X213951Y31550D01*
X213951Y31470D01*
X213955Y31391D01*
X213963Y31313D01*
X213974Y31234D01*
X213990Y31157D01*
X214008Y31080D01*
X214031Y31004D01*
X214057Y30930D01*
X214087Y30856D01*
X214121Y30784D01*
X214157Y30714D01*
X214197Y30646D01*
X214241Y30580D01*
X214287Y30516D01*
X214337Y30454D01*
X214389Y30395D01*
X214445Y30339D01*
X214502Y30285D01*
X214563Y30234D01*
X214626Y30186D01*
X214691Y30141D01*
X214758Y30099D01*
X214827Y30061D01*
X214898Y30025D01*
X214971Y29994D01*
X215045Y29966D01*
X215120Y29941D01*
X215196Y29921D01*
X215273Y29903D01*
X215351Y29890D01*
X215430Y29881D01*
X215509Y29875D01*
X215588Y29873D01*
X210759Y29055D02*
X210759Y27418D01*
X210759Y29055D02*
X210757Y29134D01*
X210751Y29213D01*
X210742Y29292D01*
X210729Y29370D01*
X210711Y29447D01*
X210691Y29523D01*
X210666Y29598D01*
X210638Y29672D01*
X210607Y29745D01*
X210571Y29816D01*
X210533Y29885D01*
X210491Y29952D01*
X210446Y30017D01*
X210398Y30080D01*
X210347Y30141D01*
X210293Y30198D01*
X210237Y30254D01*
X210178Y30306D01*
X210116Y30356D01*
X210052Y30402D01*
X209986Y30446D01*
X209918Y30486D01*
X209848Y30522D01*
X209776Y30556D01*
X209702Y30586D01*
X209628Y30612D01*
X209552Y30635D01*
X209475Y30653D01*
X209398Y30669D01*
X209319Y30680D01*
X209241Y30688D01*
X209162Y30692D01*
X209082Y30692D01*
X209003Y30688D01*
X208925Y30680D01*
X208846Y30669D01*
X208769Y30653D01*
X208692Y30635D01*
X208616Y30612D01*
X208542Y30586D01*
X208468Y30556D01*
X208396Y30522D01*
X208326Y30486D01*
X208258Y30446D01*
X208192Y30402D01*
X208128Y30356D01*
X208066Y30306D01*
X208007Y30254D01*
X207951Y30198D01*
X207897Y30141D01*
X207846Y30080D01*
X207798Y30017D01*
X207753Y29952D01*
X207711Y29885D01*
X207673Y29816D01*
X207637Y29745D01*
X207606Y29672D01*
X207578Y29598D01*
X207553Y29523D01*
X207533Y29447D01*
X207515Y29370D01*
X207502Y29292D01*
X207493Y29213D01*
X207487Y29134D01*
X207485Y29055D01*
X207485Y27418D01*
X207487Y27339D01*
X207493Y27260D01*
X207502Y27181D01*
X207515Y27103D01*
X207533Y27026D01*
X207553Y26950D01*
X207578Y26875D01*
X207606Y26801D01*
X207637Y26728D01*
X207673Y26657D01*
X207711Y26588D01*
X207753Y26521D01*
X207798Y26456D01*
X207846Y26393D01*
X207897Y26332D01*
X207951Y26275D01*
X208007Y26219D01*
X208066Y26167D01*
X208128Y26117D01*
X208192Y26071D01*
X208258Y26027D01*
X208326Y25987D01*
X208396Y25951D01*
X208468Y25917D01*
X208542Y25887D01*
X208616Y25861D01*
X208692Y25838D01*
X208769Y25820D01*
X208846Y25804D01*
X208925Y25793D01*
X209003Y25785D01*
X209082Y25781D01*
X209162Y25781D01*
X209241Y25785D01*
X209319Y25793D01*
X209398Y25804D01*
X209475Y25820D01*
X209552Y25838D01*
X209628Y25861D01*
X209702Y25887D01*
X209776Y25917D01*
X209848Y25951D01*
X209918Y25987D01*
X209986Y26027D01*
X210052Y26071D01*
X210116Y26117D01*
X210178Y26167D01*
X210237Y26219D01*
X210293Y26275D01*
X210347Y26332D01*
X210398Y26393D01*
X210446Y26456D01*
X210491Y26521D01*
X210533Y26588D01*
X210571Y26657D01*
X210607Y26728D01*
X210638Y26801D01*
X210666Y26875D01*
X210691Y26950D01*
X210711Y27026D01*
X210729Y27103D01*
X210742Y27181D01*
X210751Y27260D01*
X210757Y27339D01*
X210759Y27418D01*
X204419Y27418D02*
X204419Y29055D01*
X204417Y29134D01*
X204411Y29213D01*
X204402Y29292D01*
X204389Y29370D01*
X204371Y29447D01*
X204351Y29523D01*
X204326Y29598D01*
X204298Y29672D01*
X204267Y29745D01*
X204231Y29816D01*
X204193Y29885D01*
X204151Y29952D01*
X204106Y30017D01*
X204058Y30080D01*
X204007Y30141D01*
X203953Y30198D01*
X203897Y30254D01*
X203838Y30306D01*
X203776Y30356D01*
X203712Y30402D01*
X203646Y30446D01*
X203578Y30486D01*
X203508Y30522D01*
X203436Y30556D01*
X203362Y30586D01*
X203288Y30612D01*
X203212Y30635D01*
X203135Y30653D01*
X203058Y30669D01*
X202979Y30680D01*
X202901Y30688D01*
X202822Y30692D01*
X202742Y30692D01*
X202663Y30688D01*
X202585Y30680D01*
X202506Y30669D01*
X202429Y30653D01*
X202352Y30635D01*
X202276Y30612D01*
X202202Y30586D01*
X202128Y30556D01*
X202056Y30522D01*
X201986Y30486D01*
X201918Y30446D01*
X201852Y30402D01*
X201788Y30356D01*
X201726Y30306D01*
X201667Y30254D01*
X201611Y30198D01*
X201557Y30141D01*
X201506Y30080D01*
X201458Y30017D01*
X201413Y29952D01*
X201371Y29885D01*
X201333Y29816D01*
X201297Y29745D01*
X201266Y29672D01*
X201238Y29598D01*
X201213Y29523D01*
X201193Y29447D01*
X201175Y29370D01*
X201162Y29292D01*
X201153Y29213D01*
X201147Y29134D01*
X201145Y29055D01*
X201145Y27418D01*
X201147Y27339D01*
X201153Y27260D01*
X201162Y27181D01*
X201175Y27103D01*
X201193Y27026D01*
X201213Y26950D01*
X201238Y26875D01*
X201266Y26801D01*
X201297Y26728D01*
X201333Y26657D01*
X201371Y26588D01*
X201413Y26521D01*
X201458Y26456D01*
X201506Y26393D01*
X201557Y26332D01*
X201611Y26275D01*
X201667Y26219D01*
X201726Y26167D01*
X201788Y26117D01*
X201852Y26071D01*
X201918Y26027D01*
X201986Y25987D01*
X202056Y25951D01*
X202128Y25917D01*
X202202Y25887D01*
X202276Y25861D01*
X202352Y25838D01*
X202429Y25820D01*
X202506Y25804D01*
X202585Y25793D01*
X202663Y25785D01*
X202742Y25781D01*
X202822Y25781D01*
X202901Y25785D01*
X202979Y25793D01*
X203058Y25804D01*
X203135Y25820D01*
X203212Y25838D01*
X203288Y25861D01*
X203362Y25887D01*
X203436Y25917D01*
X203508Y25951D01*
X203578Y25987D01*
X203646Y26027D01*
X203712Y26071D01*
X203776Y26117D01*
X203838Y26167D01*
X203897Y26219D01*
X203953Y26275D01*
X204007Y26332D01*
X204058Y26393D01*
X204106Y26456D01*
X204151Y26521D01*
X204193Y26588D01*
X204231Y26657D01*
X204267Y26728D01*
X204298Y26801D01*
X204326Y26875D01*
X204351Y26950D01*
X204371Y27026D01*
X204389Y27103D01*
X204402Y27181D01*
X204411Y27260D01*
X204417Y27339D01*
X204419Y27418D01*
X197465Y28646D02*
X195419Y27827D01*
X197465Y28646D02*
X197524Y28671D01*
X197581Y28700D01*
X197636Y28733D01*
X197689Y28769D01*
X197740Y28807D01*
X197788Y28849D01*
X197834Y28894D01*
X197877Y28941D01*
X197917Y28991D01*
X197954Y29043D01*
X197988Y29098D01*
X198019Y29154D01*
X198046Y29212D01*
X198069Y29272D01*
X198089Y29332D01*
X198105Y29394D01*
X198118Y29457D01*
X198126Y29521D01*
X198131Y29584D01*
X198132Y29648D01*
X198129Y29712D01*
X198122Y29776D01*
X198111Y29839D01*
X198097Y29901D01*
X198079Y29963D01*
X198057Y30023D01*
X198032Y30082D01*
X198003Y30139D01*
X197970Y30194D01*
X197935Y30247D01*
X197896Y30298D01*
X197854Y30347D01*
X197810Y30393D01*
X197762Y30436D01*
X197713Y30476D01*
X197660Y30513D01*
X197606Y30547D01*
X197550Y30578D01*
X197492Y30605D01*
X197433Y30629D01*
X197372Y30648D01*
X197310Y30665D01*
X197247Y30677D01*
X197184Y30686D01*
X197120Y30691D01*
X197056Y30692D01*
X196920Y30688D01*
X196785Y30680D01*
X196649Y30668D01*
X196515Y30652D01*
X196380Y30632D01*
X196247Y30609D01*
X196114Y30581D01*
X195982Y30550D01*
X195851Y30515D01*
X195721Y30476D01*
X195592Y30433D01*
X195465Y30386D01*
X195339Y30336D01*
X195214Y30282D01*
X195419Y27827D02*
X195360Y27802D01*
X195303Y27773D01*
X195248Y27740D01*
X195195Y27704D01*
X195144Y27666D01*
X195096Y27624D01*
X195050Y27579D01*
X195007Y27532D01*
X194967Y27482D01*
X194930Y27430D01*
X194896Y27375D01*
X194865Y27319D01*
X194838Y27261D01*
X194815Y27201D01*
X194795Y27141D01*
X194779Y27079D01*
X194766Y27016D01*
X194758Y26952D01*
X194753Y26889D01*
X194752Y26825D01*
X194755Y26761D01*
X194762Y26697D01*
X194773Y26634D01*
X194787Y26572D01*
X194805Y26510D01*
X194827Y26450D01*
X194852Y26391D01*
X194881Y26334D01*
X194914Y26279D01*
X194949Y26226D01*
X194988Y26175D01*
X195030Y26126D01*
X195074Y26080D01*
X195122Y26037D01*
X195171Y25997D01*
X195224Y25960D01*
X195278Y25926D01*
X195334Y25895D01*
X195392Y25868D01*
X195451Y25844D01*
X195512Y25825D01*
X195574Y25808D01*
X195637Y25796D01*
X195700Y25787D01*
X195764Y25782D01*
X195828Y25781D01*
X195992Y25785D01*
X196156Y25793D01*
X196320Y25805D01*
X196483Y25821D01*
X196646Y25841D01*
X196809Y25864D01*
X196970Y25892D01*
X197132Y25923D01*
X197292Y25958D01*
X197451Y25997D01*
X197610Y26040D01*
X197767Y26086D01*
X197924Y26136D01*
X198079Y26190D01*
X192370Y30692D02*
X189914Y30692D01*
X191551Y33147D02*
X191551Y27009D01*
X191549Y26940D01*
X191543Y26872D01*
X191534Y26803D01*
X191520Y26736D01*
X191503Y26669D01*
X191482Y26603D01*
X191458Y26539D01*
X191429Y26476D01*
X191398Y26415D01*
X191363Y26356D01*
X191325Y26298D01*
X191283Y26243D01*
X191239Y26191D01*
X191191Y26141D01*
X191141Y26093D01*
X191089Y26049D01*
X191034Y26008D01*
X190976Y25969D01*
X190917Y25934D01*
X190856Y25903D01*
X190793Y25874D01*
X190729Y25850D01*
X190663Y25829D01*
X190596Y25812D01*
X190529Y25798D01*
X190461Y25789D01*
X190392Y25783D01*
X190323Y25781D01*
X190324Y25781D02*
X189914Y25781D01*
X185879Y25781D02*
X183833Y25781D01*
X185879Y25781D02*
X185948Y25783D01*
X186016Y25789D01*
X186085Y25798D01*
X186152Y25812D01*
X186219Y25829D01*
X186285Y25850D01*
X186349Y25874D01*
X186412Y25903D01*
X186473Y25934D01*
X186532Y25969D01*
X186590Y26007D01*
X186645Y26049D01*
X186697Y26093D01*
X186747Y26141D01*
X186795Y26191D01*
X186839Y26243D01*
X186881Y26298D01*
X186919Y26356D01*
X186954Y26415D01*
X186985Y26476D01*
X187014Y26539D01*
X187038Y26603D01*
X187059Y26669D01*
X187076Y26736D01*
X187090Y26803D01*
X187099Y26872D01*
X187105Y26940D01*
X187107Y27009D01*
X187106Y27009D02*
X187106Y29055D01*
X187104Y29134D01*
X187098Y29213D01*
X187089Y29292D01*
X187076Y29370D01*
X187058Y29447D01*
X187038Y29523D01*
X187013Y29598D01*
X186985Y29672D01*
X186954Y29745D01*
X186918Y29816D01*
X186880Y29885D01*
X186838Y29952D01*
X186793Y30017D01*
X186745Y30080D01*
X186694Y30141D01*
X186640Y30198D01*
X186584Y30254D01*
X186525Y30306D01*
X186463Y30356D01*
X186399Y30402D01*
X186333Y30446D01*
X186265Y30486D01*
X186195Y30522D01*
X186123Y30556D01*
X186049Y30586D01*
X185975Y30612D01*
X185899Y30635D01*
X185822Y30653D01*
X185745Y30669D01*
X185666Y30680D01*
X185588Y30688D01*
X185509Y30692D01*
X185429Y30692D01*
X185350Y30688D01*
X185272Y30680D01*
X185193Y30669D01*
X185116Y30653D01*
X185039Y30635D01*
X184963Y30612D01*
X184889Y30586D01*
X184815Y30556D01*
X184743Y30522D01*
X184673Y30486D01*
X184605Y30446D01*
X184539Y30402D01*
X184475Y30356D01*
X184413Y30306D01*
X184354Y30254D01*
X184298Y30198D01*
X184244Y30141D01*
X184193Y30080D01*
X184145Y30017D01*
X184100Y29952D01*
X184058Y29885D01*
X184020Y29816D01*
X183984Y29745D01*
X183953Y29672D01*
X183925Y29598D01*
X183900Y29523D01*
X183880Y29447D01*
X183862Y29370D01*
X183849Y29292D01*
X183840Y29213D01*
X183834Y29134D01*
X183832Y29055D01*
X183833Y29055D02*
X183833Y28236D01*
X187106Y28236D01*
X180477Y25781D02*
X180477Y30692D01*
X178021Y30692D01*
X178021Y29873D01*
X171588Y28646D02*
X166677Y28646D01*
X157223Y33148D02*
X157138Y33146D01*
X157053Y33140D01*
X156969Y33130D01*
X156885Y33117D01*
X156801Y33099D01*
X156719Y33078D01*
X156638Y33053D01*
X156558Y33024D01*
X156479Y32991D01*
X156402Y32955D01*
X156327Y32915D01*
X156253Y32872D01*
X156182Y32826D01*
X156113Y32776D01*
X156046Y32723D01*
X155982Y32667D01*
X155921Y32608D01*
X155862Y32547D01*
X155806Y32483D01*
X155753Y32416D01*
X155703Y32347D01*
X155657Y32276D01*
X155614Y32202D01*
X155574Y32127D01*
X155538Y32050D01*
X155505Y31971D01*
X155476Y31891D01*
X155451Y31810D01*
X155430Y31728D01*
X155412Y31644D01*
X155399Y31560D01*
X155389Y31476D01*
X155383Y31391D01*
X155381Y31306D01*
X157223Y33147D02*
X157319Y33145D01*
X157415Y33139D01*
X157510Y33129D01*
X157605Y33116D01*
X157700Y33098D01*
X157793Y33077D01*
X157886Y33052D01*
X157977Y33023D01*
X158068Y32991D01*
X158157Y32955D01*
X158244Y32915D01*
X158330Y32872D01*
X158414Y32826D01*
X158496Y32776D01*
X158576Y32722D01*
X158653Y32666D01*
X158728Y32606D01*
X158801Y32544D01*
X158871Y32478D01*
X158939Y32410D01*
X159004Y32339D01*
X159065Y32266D01*
X159124Y32190D01*
X159180Y32111D01*
X159232Y32031D01*
X159281Y31948D01*
X159327Y31864D01*
X159369Y31778D01*
X159407Y31690D01*
X159442Y31601D01*
X159474Y31510D01*
X155996Y29874D02*
X155936Y29933D01*
X155879Y29995D01*
X155824Y30059D01*
X155773Y30126D01*
X155724Y30195D01*
X155678Y30265D01*
X155635Y30338D01*
X155595Y30412D01*
X155559Y30488D01*
X155526Y30566D01*
X155496Y30645D01*
X155469Y30725D01*
X155446Y30806D01*
X155427Y30888D01*
X155411Y30970D01*
X155398Y31054D01*
X155389Y31138D01*
X155384Y31222D01*
X155382Y31306D01*
X155996Y29873D02*
X159474Y25781D01*
X155382Y25781D01*
X152159Y29464D02*
X152157Y29617D01*
X152151Y29770D01*
X152142Y29922D01*
X152128Y30075D01*
X152111Y30227D01*
X152090Y30378D01*
X152065Y30529D01*
X152036Y30679D01*
X152004Y30829D01*
X151967Y30977D01*
X151927Y31125D01*
X151884Y31272D01*
X151836Y31417D01*
X151785Y31561D01*
X151731Y31704D01*
X151672Y31846D01*
X151611Y31985D01*
X151545Y32124D01*
X151519Y32194D01*
X151489Y32263D01*
X151457Y32331D01*
X151420Y32397D01*
X151381Y32461D01*
X151338Y32523D01*
X151293Y32582D01*
X151244Y32640D01*
X151193Y32694D01*
X151139Y32747D01*
X151082Y32796D01*
X151023Y32843D01*
X150962Y32886D01*
X150899Y32927D01*
X150834Y32964D01*
X150767Y32999D01*
X150698Y33029D01*
X150628Y33057D01*
X150557Y33080D01*
X150485Y33101D01*
X150412Y33117D01*
X150338Y33130D01*
X150263Y33140D01*
X150188Y33145D01*
X150113Y33147D01*
X150038Y33145D01*
X149963Y33140D01*
X149888Y33130D01*
X149814Y33117D01*
X149741Y33101D01*
X149669Y33080D01*
X149598Y33057D01*
X149528Y33029D01*
X149459Y32999D01*
X149392Y32964D01*
X149327Y32927D01*
X149264Y32886D01*
X149203Y32843D01*
X149144Y32796D01*
X149087Y32747D01*
X149033Y32694D01*
X148982Y32640D01*
X148934Y32582D01*
X148888Y32523D01*
X148845Y32461D01*
X148806Y32397D01*
X148770Y32331D01*
X148737Y32264D01*
X148707Y32194D01*
X148681Y32124D01*
X148616Y31986D01*
X148554Y31846D01*
X148496Y31704D01*
X148441Y31561D01*
X148390Y31417D01*
X148342Y31272D01*
X148299Y31125D01*
X148259Y30978D01*
X148222Y30829D01*
X148190Y30679D01*
X148161Y30529D01*
X148136Y30378D01*
X148115Y30227D01*
X148098Y30075D01*
X148084Y29922D01*
X148075Y29770D01*
X148069Y29617D01*
X148067Y29464D01*
X152159Y29464D02*
X152157Y29311D01*
X152151Y29158D01*
X152142Y29005D01*
X152128Y28853D01*
X152111Y28701D01*
X152090Y28550D01*
X152065Y28399D01*
X152036Y28248D01*
X152004Y28099D01*
X151967Y27950D01*
X151927Y27803D01*
X151884Y27656D01*
X151836Y27511D01*
X151785Y27366D01*
X151730Y27224D01*
X151672Y27082D01*
X151610Y26942D01*
X151545Y26804D01*
X151519Y26734D01*
X151489Y26664D01*
X151457Y26597D01*
X151420Y26531D01*
X151381Y26467D01*
X151338Y26405D01*
X151292Y26346D01*
X151244Y26288D01*
X151193Y26234D01*
X151139Y26181D01*
X151082Y26132D01*
X151023Y26085D01*
X150962Y26042D01*
X150899Y26001D01*
X150834Y25964D01*
X150767Y25929D01*
X150698Y25899D01*
X150628Y25871D01*
X150557Y25848D01*
X150485Y25827D01*
X150412Y25811D01*
X150338Y25798D01*
X150263Y25788D01*
X150188Y25783D01*
X150113Y25781D01*
X148681Y26804D02*
X148616Y26942D01*
X148554Y27082D01*
X148496Y27224D01*
X148441Y27367D01*
X148390Y27511D01*
X148342Y27656D01*
X148299Y27803D01*
X148259Y27951D01*
X148222Y28099D01*
X148190Y28249D01*
X148161Y28399D01*
X148136Y28550D01*
X148115Y28701D01*
X148098Y28853D01*
X148084Y29006D01*
X148075Y29158D01*
X148069Y29311D01*
X148067Y29464D01*
X148681Y26804D02*
X148707Y26733D01*
X148737Y26664D01*
X148770Y26597D01*
X148806Y26531D01*
X148845Y26467D01*
X148888Y26405D01*
X148934Y26346D01*
X148982Y26288D01*
X149033Y26234D01*
X149087Y26181D01*
X149144Y26132D01*
X149203Y26085D01*
X149264Y26042D01*
X149327Y26001D01*
X149392Y25964D01*
X149459Y25929D01*
X149528Y25899D01*
X149598Y25871D01*
X149669Y25848D01*
X149741Y25827D01*
X149814Y25811D01*
X149888Y25798D01*
X149963Y25788D01*
X150038Y25783D01*
X150113Y25781D01*
X151750Y27418D02*
X148476Y31510D01*
X142593Y33148D02*
X142508Y33146D01*
X142423Y33140D01*
X142339Y33130D01*
X142255Y33117D01*
X142171Y33099D01*
X142089Y33078D01*
X142008Y33053D01*
X141928Y33024D01*
X141849Y32991D01*
X141772Y32955D01*
X141697Y32915D01*
X141623Y32872D01*
X141552Y32826D01*
X141483Y32776D01*
X141416Y32723D01*
X141352Y32667D01*
X141291Y32608D01*
X141232Y32547D01*
X141176Y32483D01*
X141123Y32416D01*
X141073Y32347D01*
X141027Y32276D01*
X140984Y32202D01*
X140944Y32127D01*
X140908Y32050D01*
X140875Y31971D01*
X140846Y31891D01*
X140821Y31810D01*
X140800Y31728D01*
X140782Y31644D01*
X140769Y31560D01*
X140759Y31476D01*
X140753Y31391D01*
X140751Y31306D01*
X142593Y33147D02*
X142689Y33145D01*
X142785Y33139D01*
X142880Y33129D01*
X142975Y33116D01*
X143070Y33098D01*
X143163Y33077D01*
X143256Y33052D01*
X143347Y33023D01*
X143438Y32991D01*
X143527Y32955D01*
X143614Y32915D01*
X143700Y32872D01*
X143784Y32826D01*
X143866Y32776D01*
X143946Y32722D01*
X144023Y32666D01*
X144098Y32606D01*
X144171Y32544D01*
X144241Y32478D01*
X144309Y32410D01*
X144374Y32339D01*
X144435Y32266D01*
X144494Y32190D01*
X144550Y32111D01*
X144602Y32031D01*
X144651Y31948D01*
X144697Y31864D01*
X144739Y31778D01*
X144777Y31690D01*
X144812Y31601D01*
X144844Y31510D01*
X141365Y29874D02*
X141305Y29933D01*
X141248Y29995D01*
X141193Y30059D01*
X141142Y30126D01*
X141093Y30195D01*
X141047Y30265D01*
X141004Y30338D01*
X140964Y30412D01*
X140928Y30488D01*
X140895Y30566D01*
X140865Y30645D01*
X140838Y30725D01*
X140815Y30806D01*
X140796Y30888D01*
X140780Y30970D01*
X140767Y31054D01*
X140758Y31138D01*
X140753Y31222D01*
X140751Y31306D01*
X141365Y29873D02*
X144844Y25781D01*
X140751Y25781D01*
X133436Y31306D02*
X133438Y31391D01*
X133444Y31476D01*
X133454Y31560D01*
X133467Y31644D01*
X133485Y31728D01*
X133506Y31810D01*
X133531Y31891D01*
X133560Y31971D01*
X133593Y32050D01*
X133629Y32127D01*
X133669Y32202D01*
X133712Y32276D01*
X133758Y32347D01*
X133808Y32416D01*
X133861Y32483D01*
X133917Y32547D01*
X133976Y32608D01*
X134037Y32667D01*
X134101Y32723D01*
X134168Y32776D01*
X134237Y32826D01*
X134308Y32872D01*
X134382Y32915D01*
X134457Y32955D01*
X134534Y32991D01*
X134613Y33024D01*
X134693Y33053D01*
X134774Y33078D01*
X134856Y33099D01*
X134940Y33117D01*
X135024Y33130D01*
X135108Y33140D01*
X135193Y33146D01*
X135278Y33148D01*
X135278Y33147D02*
X135374Y33145D01*
X135470Y33139D01*
X135565Y33129D01*
X135660Y33116D01*
X135755Y33098D01*
X135848Y33077D01*
X135941Y33052D01*
X136032Y33023D01*
X136123Y32991D01*
X136212Y32955D01*
X136299Y32915D01*
X136385Y32872D01*
X136469Y32826D01*
X136551Y32776D01*
X136631Y32722D01*
X136708Y32666D01*
X136783Y32606D01*
X136856Y32544D01*
X136926Y32478D01*
X136994Y32410D01*
X137059Y32339D01*
X137120Y32266D01*
X137179Y32190D01*
X137235Y32111D01*
X137287Y32031D01*
X137336Y31948D01*
X137382Y31864D01*
X137424Y31778D01*
X137462Y31690D01*
X137497Y31601D01*
X137529Y31510D01*
X134050Y29874D02*
X133990Y29933D01*
X133933Y29995D01*
X133878Y30059D01*
X133827Y30126D01*
X133778Y30195D01*
X133732Y30265D01*
X133689Y30338D01*
X133649Y30412D01*
X133613Y30488D01*
X133580Y30566D01*
X133550Y30645D01*
X133523Y30725D01*
X133500Y30806D01*
X133481Y30888D01*
X133465Y30970D01*
X133452Y31054D01*
X133443Y31138D01*
X133438Y31222D01*
X133436Y31306D01*
X134050Y29873D02*
X137528Y25781D01*
X133436Y25781D01*
X279104Y16637D02*
X279104Y10908D01*
X279106Y10830D01*
X279111Y10752D01*
X279121Y10675D01*
X279134Y10598D01*
X279150Y10522D01*
X279170Y10447D01*
X279194Y10373D01*
X279221Y10300D01*
X279252Y10228D01*
X279286Y10158D01*
X279323Y10090D01*
X279364Y10023D01*
X279408Y9958D01*
X279454Y9896D01*
X279504Y9836D01*
X279556Y9778D01*
X279611Y9723D01*
X279669Y9671D01*
X279729Y9621D01*
X279791Y9575D01*
X279856Y9531D01*
X279923Y9490D01*
X279991Y9453D01*
X280061Y9419D01*
X280133Y9388D01*
X280206Y9361D01*
X280280Y9337D01*
X280355Y9317D01*
X280431Y9301D01*
X280508Y9288D01*
X280585Y9278D01*
X280663Y9273D01*
X280741Y9271D01*
X281559Y9271D01*
X275410Y9271D02*
X275410Y16637D01*
X275410Y9271D02*
X272136Y9271D01*
X267716Y9271D02*
X266079Y9271D01*
X267716Y9271D02*
X267794Y9273D01*
X267872Y9278D01*
X267949Y9288D01*
X268026Y9301D01*
X268102Y9317D01*
X268177Y9337D01*
X268251Y9361D01*
X268324Y9388D01*
X268396Y9419D01*
X268466Y9453D01*
X268535Y9490D01*
X268601Y9531D01*
X268666Y9575D01*
X268728Y9621D01*
X268788Y9671D01*
X268846Y9723D01*
X268901Y9778D01*
X268953Y9836D01*
X269003Y9896D01*
X269049Y9958D01*
X269093Y10023D01*
X269134Y10090D01*
X269171Y10158D01*
X269205Y10228D01*
X269236Y10300D01*
X269263Y10373D01*
X269287Y10447D01*
X269307Y10522D01*
X269323Y10598D01*
X269336Y10675D01*
X269346Y10752D01*
X269351Y10830D01*
X269353Y10908D01*
X269352Y10908D02*
X269352Y15000D01*
X269353Y15000D02*
X269351Y15078D01*
X269346Y15156D01*
X269336Y15233D01*
X269323Y15310D01*
X269307Y15386D01*
X269287Y15461D01*
X269263Y15535D01*
X269236Y15608D01*
X269205Y15680D01*
X269171Y15750D01*
X269134Y15819D01*
X269093Y15885D01*
X269049Y15950D01*
X269003Y16012D01*
X268953Y16072D01*
X268901Y16130D01*
X268846Y16185D01*
X268788Y16237D01*
X268728Y16287D01*
X268666Y16333D01*
X268601Y16377D01*
X268535Y16418D01*
X268466Y16455D01*
X268396Y16489D01*
X268324Y16520D01*
X268251Y16547D01*
X268177Y16571D01*
X268102Y16591D01*
X268026Y16607D01*
X267949Y16620D01*
X267872Y16630D01*
X267794Y16635D01*
X267716Y16637D01*
X266079Y16637D01*
X261547Y16637D02*
X261547Y10908D01*
X261549Y10830D01*
X261554Y10752D01*
X261564Y10675D01*
X261577Y10598D01*
X261593Y10522D01*
X261613Y10447D01*
X261637Y10373D01*
X261664Y10300D01*
X261695Y10228D01*
X261729Y10158D01*
X261766Y10090D01*
X261807Y10023D01*
X261851Y9958D01*
X261897Y9896D01*
X261947Y9836D01*
X261999Y9778D01*
X262054Y9723D01*
X262112Y9671D01*
X262172Y9621D01*
X262234Y9575D01*
X262299Y9531D01*
X262366Y9490D01*
X262434Y9453D01*
X262504Y9419D01*
X262576Y9388D01*
X262649Y9361D01*
X262723Y9337D01*
X262798Y9317D01*
X262874Y9301D01*
X262951Y9288D01*
X263028Y9278D01*
X263106Y9273D01*
X263184Y9271D01*
X264003Y9271D01*
X257853Y9271D02*
X257853Y16637D01*
X257853Y9271D02*
X254580Y9271D01*
X250159Y9271D02*
X248522Y9271D01*
X250159Y9271D02*
X250237Y9273D01*
X250315Y9278D01*
X250392Y9288D01*
X250469Y9301D01*
X250545Y9317D01*
X250620Y9337D01*
X250694Y9361D01*
X250767Y9388D01*
X250839Y9419D01*
X250909Y9453D01*
X250978Y9490D01*
X251044Y9531D01*
X251109Y9575D01*
X251171Y9621D01*
X251231Y9671D01*
X251289Y9723D01*
X251344Y9778D01*
X251396Y9836D01*
X251446Y9896D01*
X251492Y9958D01*
X251536Y10023D01*
X251577Y10090D01*
X251614Y10158D01*
X251648Y10228D01*
X251679Y10300D01*
X251706Y10373D01*
X251730Y10447D01*
X251750Y10522D01*
X251766Y10598D01*
X251779Y10675D01*
X251789Y10752D01*
X251794Y10830D01*
X251796Y10908D01*
X251796Y15000D01*
X251794Y15078D01*
X251789Y15156D01*
X251779Y15233D01*
X251766Y15310D01*
X251750Y15386D01*
X251730Y15461D01*
X251706Y15535D01*
X251679Y15608D01*
X251648Y15680D01*
X251614Y15750D01*
X251577Y15819D01*
X251536Y15885D01*
X251492Y15950D01*
X251446Y16012D01*
X251396Y16072D01*
X251344Y16130D01*
X251289Y16185D01*
X251231Y16237D01*
X251171Y16287D01*
X251109Y16333D01*
X251044Y16377D01*
X250978Y16418D01*
X250909Y16455D01*
X250839Y16489D01*
X250767Y16520D01*
X250694Y16547D01*
X250620Y16571D01*
X250545Y16591D01*
X250469Y16607D01*
X250392Y16620D01*
X250315Y16630D01*
X250237Y16635D01*
X250159Y16637D01*
X248522Y16637D01*
X243991Y16637D02*
X243991Y10908D01*
X243993Y10830D01*
X243998Y10752D01*
X244008Y10675D01*
X244021Y10598D01*
X244037Y10522D01*
X244057Y10447D01*
X244081Y10373D01*
X244108Y10300D01*
X244139Y10228D01*
X244173Y10158D01*
X244210Y10090D01*
X244251Y10023D01*
X244295Y9958D01*
X244341Y9896D01*
X244391Y9836D01*
X244443Y9778D01*
X244498Y9723D01*
X244556Y9671D01*
X244616Y9621D01*
X244678Y9575D01*
X244743Y9531D01*
X244810Y9490D01*
X244878Y9453D01*
X244948Y9419D01*
X245020Y9388D01*
X245093Y9361D01*
X245167Y9337D01*
X245242Y9317D01*
X245318Y9301D01*
X245395Y9288D01*
X245472Y9278D01*
X245550Y9273D01*
X245628Y9271D01*
X246446Y9271D01*
X240297Y9271D02*
X240297Y16637D01*
X240297Y9271D02*
X237023Y9271D01*
X232603Y9271D02*
X230966Y9271D01*
X232603Y9271D02*
X232681Y9273D01*
X232759Y9278D01*
X232836Y9288D01*
X232913Y9301D01*
X232989Y9317D01*
X233064Y9337D01*
X233138Y9361D01*
X233211Y9388D01*
X233283Y9419D01*
X233353Y9453D01*
X233422Y9490D01*
X233488Y9531D01*
X233553Y9575D01*
X233615Y9621D01*
X233675Y9671D01*
X233733Y9723D01*
X233788Y9778D01*
X233840Y9836D01*
X233890Y9896D01*
X233936Y9958D01*
X233980Y10023D01*
X234021Y10090D01*
X234058Y10158D01*
X234092Y10228D01*
X234123Y10300D01*
X234150Y10373D01*
X234174Y10447D01*
X234194Y10522D01*
X234210Y10598D01*
X234223Y10675D01*
X234233Y10752D01*
X234238Y10830D01*
X234240Y10908D01*
X234240Y15000D01*
X234238Y15078D01*
X234233Y15156D01*
X234223Y15233D01*
X234210Y15310D01*
X234194Y15386D01*
X234174Y15461D01*
X234150Y15535D01*
X234123Y15608D01*
X234092Y15680D01*
X234058Y15750D01*
X234021Y15819D01*
X233980Y15885D01*
X233936Y15950D01*
X233890Y16012D01*
X233840Y16072D01*
X233788Y16130D01*
X233733Y16185D01*
X233675Y16237D01*
X233615Y16287D01*
X233553Y16333D01*
X233488Y16377D01*
X233422Y16418D01*
X233353Y16455D01*
X233283Y16489D01*
X233211Y16520D01*
X233138Y16547D01*
X233064Y16571D01*
X232989Y16591D01*
X232913Y16607D01*
X232836Y16620D01*
X232759Y16630D01*
X232681Y16635D01*
X232603Y16637D01*
X230966Y16637D01*
X226435Y16637D02*
X226435Y10908D01*
X226434Y10908D02*
X226436Y10830D01*
X226441Y10752D01*
X226451Y10675D01*
X226464Y10598D01*
X226480Y10522D01*
X226500Y10447D01*
X226524Y10373D01*
X226551Y10300D01*
X226582Y10228D01*
X226616Y10158D01*
X226653Y10090D01*
X226694Y10023D01*
X226738Y9958D01*
X226784Y9896D01*
X226834Y9836D01*
X226886Y9778D01*
X226941Y9723D01*
X226999Y9671D01*
X227059Y9621D01*
X227121Y9575D01*
X227186Y9531D01*
X227253Y9490D01*
X227321Y9453D01*
X227391Y9419D01*
X227463Y9388D01*
X227536Y9361D01*
X227610Y9337D01*
X227685Y9317D01*
X227761Y9301D01*
X227838Y9288D01*
X227915Y9278D01*
X227993Y9273D01*
X228071Y9271D01*
X228890Y9271D01*
X222741Y9271D02*
X222741Y16637D01*
X222741Y9271D02*
X219467Y9271D01*
X215046Y9271D02*
X213410Y9271D01*
X215046Y9271D02*
X215124Y9273D01*
X215202Y9278D01*
X215279Y9288D01*
X215356Y9301D01*
X215432Y9317D01*
X215507Y9337D01*
X215581Y9361D01*
X215654Y9388D01*
X215726Y9419D01*
X215796Y9453D01*
X215865Y9490D01*
X215931Y9531D01*
X215996Y9575D01*
X216058Y9621D01*
X216118Y9671D01*
X216176Y9723D01*
X216231Y9778D01*
X216283Y9836D01*
X216333Y9896D01*
X216379Y9958D01*
X216423Y10023D01*
X216464Y10090D01*
X216501Y10158D01*
X216535Y10228D01*
X216566Y10300D01*
X216593Y10373D01*
X216617Y10447D01*
X216637Y10522D01*
X216653Y10598D01*
X216666Y10675D01*
X216676Y10752D01*
X216681Y10830D01*
X216683Y10908D01*
X216683Y15000D01*
X216681Y15078D01*
X216676Y15156D01*
X216666Y15233D01*
X216653Y15310D01*
X216637Y15386D01*
X216617Y15461D01*
X216593Y15535D01*
X216566Y15608D01*
X216535Y15680D01*
X216501Y15750D01*
X216464Y15819D01*
X216423Y15885D01*
X216379Y15950D01*
X216333Y16012D01*
X216283Y16072D01*
X216231Y16130D01*
X216176Y16185D01*
X216118Y16237D01*
X216058Y16287D01*
X215996Y16333D01*
X215931Y16377D01*
X215865Y16418D01*
X215796Y16455D01*
X215726Y16489D01*
X215654Y16520D01*
X215581Y16547D01*
X215507Y16571D01*
X215432Y16591D01*
X215356Y16607D01*
X215279Y16620D01*
X215202Y16630D01*
X215124Y16635D01*
X215046Y16637D01*
X213410Y16637D01*
D11*
X59690Y5010D02*
X59690Y251460D01*
X59690Y5010D02*
X5890Y5010D01*
X5890Y266310D01*
X46990Y266310D01*
X491490Y251460D02*
X491490Y5010D01*
X437690Y5010D01*
X437690Y266310D01*
X478790Y266310D01*
M02*
