G04 EAGLE Gerber RS-274X export*
G75*
%MOMM*%
%FSLAX34Y34*%
%LPD*%
%INBottom Copper*%
%IPPOS*%
%AMOC8*
5,1,8,0,0,1.08239X$1,22.5*%
G01*
%ADD10R,1.575000X1.575000*%
%ADD11C,1.575000*%
%ADD12C,0.610000*%
%ADD13C,0.152400*%

G36*
X493937Y2004D02*
X493937Y2004D01*
X493957Y2002D01*
X494058Y2024D01*
X494160Y2040D01*
X494178Y2050D01*
X494197Y2054D01*
X494286Y2107D01*
X494377Y2156D01*
X494391Y2170D01*
X494408Y2180D01*
X494476Y2259D01*
X494547Y2334D01*
X494555Y2352D01*
X494568Y2367D01*
X494607Y2463D01*
X494650Y2557D01*
X494653Y2577D01*
X494660Y2595D01*
X494678Y2762D01*
X494678Y270062D01*
X494675Y270082D01*
X494677Y270101D01*
X494655Y270203D01*
X494639Y270305D01*
X494629Y270322D01*
X494625Y270342D01*
X494572Y270431D01*
X494524Y270522D01*
X494509Y270536D01*
X494499Y270553D01*
X494420Y270620D01*
X494345Y270691D01*
X494327Y270700D01*
X494312Y270713D01*
X494216Y270752D01*
X494122Y270795D01*
X494102Y270797D01*
X494084Y270805D01*
X493917Y270823D01*
X2762Y270823D01*
X2742Y270820D01*
X2723Y270822D01*
X2621Y270800D01*
X2519Y270783D01*
X2502Y270774D01*
X2482Y270770D01*
X2393Y270717D01*
X2302Y270668D01*
X2288Y270654D01*
X2271Y270644D01*
X2204Y270565D01*
X2132Y270490D01*
X2124Y270472D01*
X2111Y270457D01*
X2072Y270361D01*
X2029Y270267D01*
X2027Y270247D01*
X2019Y270229D01*
X2001Y270062D01*
X2001Y2762D01*
X2004Y2742D01*
X2002Y2723D01*
X2024Y2621D01*
X2040Y2519D01*
X2050Y2502D01*
X2054Y2482D01*
X2107Y2393D01*
X2156Y2302D01*
X2170Y2288D01*
X2180Y2271D01*
X2259Y2204D01*
X2334Y2132D01*
X2352Y2124D01*
X2367Y2111D01*
X2463Y2072D01*
X2557Y2029D01*
X2577Y2027D01*
X2595Y2019D01*
X2762Y2001D01*
X493917Y2001D01*
X493937Y2004D01*
G37*
%LPC*%
G36*
X179715Y84325D02*
X179715Y84325D01*
X177035Y87005D01*
X177035Y90795D01*
X179715Y93475D01*
X183505Y93475D01*
X185824Y91156D01*
X185898Y91103D01*
X185967Y91043D01*
X185998Y91031D01*
X186024Y91012D01*
X186111Y90985D01*
X186196Y90951D01*
X186236Y90947D01*
X186259Y90940D01*
X186291Y90941D01*
X186362Y90933D01*
X227443Y90933D01*
X227533Y90947D01*
X227624Y90955D01*
X227653Y90967D01*
X227685Y90972D01*
X227766Y91015D01*
X227850Y91051D01*
X227882Y91077D01*
X227903Y91088D01*
X227925Y91111D01*
X227981Y91156D01*
X258729Y121904D01*
X258782Y121978D01*
X258842Y122047D01*
X258854Y122078D01*
X258873Y122104D01*
X258900Y122191D01*
X258934Y122276D01*
X258938Y122317D01*
X258945Y122339D01*
X258944Y122371D01*
X258952Y122442D01*
X258952Y135583D01*
X258938Y135673D01*
X258930Y135764D01*
X258918Y135794D01*
X258913Y135826D01*
X258870Y135906D01*
X258834Y135990D01*
X258808Y136022D01*
X258797Y136043D01*
X258774Y136065D01*
X258729Y136121D01*
X257045Y137805D01*
X257045Y141595D01*
X259725Y144275D01*
X263515Y144275D01*
X266195Y141595D01*
X266195Y137805D01*
X263406Y135017D01*
X263319Y134970D01*
X263305Y134956D01*
X263288Y134946D01*
X263221Y134867D01*
X263149Y134792D01*
X263141Y134774D01*
X263128Y134759D01*
X263089Y134663D01*
X263046Y134569D01*
X263044Y134549D01*
X263036Y134531D01*
X263018Y134364D01*
X263018Y120443D01*
X229442Y86867D01*
X186362Y86867D01*
X186272Y86853D01*
X186181Y86845D01*
X186151Y86833D01*
X186119Y86828D01*
X186039Y86785D01*
X185955Y86749D01*
X185923Y86723D01*
X185902Y86712D01*
X185880Y86689D01*
X185824Y86644D01*
X183505Y84325D01*
X179715Y84325D01*
G37*
%LPD*%
%LPC*%
G36*
X38589Y242314D02*
X38589Y242314D01*
X37844Y243059D01*
X37844Y259861D01*
X38589Y260606D01*
X55391Y260606D01*
X56136Y259861D01*
X56136Y243059D01*
X55391Y242314D01*
X38589Y242314D01*
G37*
%LPD*%
%LPC*%
G36*
X263535Y184655D02*
X263535Y184655D01*
X260855Y187335D01*
X260855Y191125D01*
X263535Y193805D01*
X267325Y193805D01*
X269644Y191486D01*
X269718Y191433D01*
X269787Y191373D01*
X269818Y191361D01*
X269844Y191342D01*
X269931Y191315D01*
X270016Y191281D01*
X270056Y191277D01*
X270079Y191270D01*
X270111Y191271D01*
X270182Y191263D01*
X315288Y191263D01*
X315378Y191277D01*
X315469Y191285D01*
X315499Y191297D01*
X315531Y191302D01*
X315611Y191345D01*
X315695Y191381D01*
X315727Y191407D01*
X315748Y191418D01*
X315770Y191441D01*
X315826Y191486D01*
X318145Y193805D01*
X321935Y193805D01*
X324615Y191125D01*
X324615Y187335D01*
X321935Y184655D01*
X318145Y184655D01*
X315826Y186974D01*
X315752Y187027D01*
X315683Y187087D01*
X315652Y187099D01*
X315626Y187118D01*
X315539Y187145D01*
X315454Y187179D01*
X315414Y187183D01*
X315391Y187190D01*
X315359Y187189D01*
X315288Y187197D01*
X270182Y187197D01*
X270092Y187183D01*
X270001Y187175D01*
X269971Y187163D01*
X269939Y187158D01*
X269859Y187115D01*
X269775Y187079D01*
X269743Y187053D01*
X269722Y187042D01*
X269700Y187019D01*
X269644Y186974D01*
X267325Y184655D01*
X263535Y184655D01*
G37*
%LPD*%
%LPC*%
G36*
X263535Y170685D02*
X263535Y170685D01*
X260855Y173365D01*
X260855Y177155D01*
X263535Y179835D01*
X267325Y179835D01*
X269644Y177516D01*
X269718Y177463D01*
X269787Y177403D01*
X269818Y177391D01*
X269844Y177372D01*
X269931Y177345D01*
X270016Y177311D01*
X270056Y177307D01*
X270079Y177300D01*
X270111Y177301D01*
X270182Y177293D01*
X315288Y177293D01*
X315378Y177307D01*
X315469Y177315D01*
X315499Y177327D01*
X315531Y177332D01*
X315611Y177375D01*
X315695Y177411D01*
X315727Y177437D01*
X315748Y177448D01*
X315770Y177471D01*
X315826Y177516D01*
X318145Y179835D01*
X321935Y179835D01*
X324615Y177155D01*
X324615Y173365D01*
X321935Y170685D01*
X318145Y170685D01*
X315826Y173004D01*
X315752Y173057D01*
X315683Y173117D01*
X315652Y173129D01*
X315626Y173148D01*
X315539Y173175D01*
X315454Y173209D01*
X315414Y173213D01*
X315391Y173220D01*
X315359Y173219D01*
X315288Y173227D01*
X270182Y173227D01*
X270092Y173213D01*
X270001Y173205D01*
X269971Y173193D01*
X269939Y173188D01*
X269859Y173145D01*
X269775Y173109D01*
X269743Y173083D01*
X269722Y173072D01*
X269700Y173049D01*
X269644Y173004D01*
X267325Y170685D01*
X263535Y170685D01*
G37*
%LPD*%
%LPC*%
G36*
X19771Y64514D02*
X19771Y64514D01*
X16409Y65907D01*
X13837Y68479D01*
X12444Y71841D01*
X12444Y75479D01*
X13837Y78841D01*
X16409Y81413D01*
X19771Y82806D01*
X23409Y82806D01*
X26771Y81413D01*
X29343Y78841D01*
X30736Y75479D01*
X30736Y71841D01*
X29343Y68479D01*
X26771Y65907D01*
X23409Y64514D01*
X19771Y64514D01*
G37*
%LPD*%
%LPC*%
G36*
X476971Y39114D02*
X476971Y39114D01*
X473609Y40507D01*
X471037Y43079D01*
X469644Y46441D01*
X469644Y50079D01*
X471037Y53441D01*
X473609Y56013D01*
X476971Y57406D01*
X480609Y57406D01*
X483971Y56013D01*
X486543Y53441D01*
X487936Y50079D01*
X487936Y46441D01*
X486543Y43079D01*
X483971Y40507D01*
X480609Y39114D01*
X476971Y39114D01*
G37*
%LPD*%
%LPC*%
G36*
X451571Y242314D02*
X451571Y242314D01*
X448209Y243707D01*
X445637Y246279D01*
X444244Y249641D01*
X444244Y253279D01*
X445637Y256641D01*
X448209Y259213D01*
X451571Y260606D01*
X455209Y260606D01*
X458571Y259213D01*
X461143Y256641D01*
X462536Y253279D01*
X462536Y249641D01*
X461143Y246279D01*
X458571Y243707D01*
X455209Y242314D01*
X451571Y242314D01*
G37*
%LPD*%
%LPC*%
G36*
X19771Y242314D02*
X19771Y242314D01*
X16409Y243707D01*
X13837Y246279D01*
X12444Y249641D01*
X12444Y253279D01*
X13837Y256641D01*
X16409Y259213D01*
X19771Y260606D01*
X23409Y260606D01*
X26771Y259213D01*
X29343Y256641D01*
X30736Y253279D01*
X30736Y249641D01*
X29343Y246279D01*
X26771Y243707D01*
X23409Y242314D01*
X19771Y242314D01*
G37*
%LPD*%
%LPC*%
G36*
X451571Y216914D02*
X451571Y216914D01*
X448209Y218307D01*
X445637Y220879D01*
X444244Y224241D01*
X444244Y227879D01*
X445637Y231241D01*
X448209Y233813D01*
X451571Y235206D01*
X455209Y235206D01*
X458571Y233813D01*
X461143Y231241D01*
X462536Y227879D01*
X462536Y224241D01*
X461143Y220879D01*
X458571Y218307D01*
X455209Y216914D01*
X451571Y216914D01*
G37*
%LPD*%
%LPC*%
G36*
X451571Y39114D02*
X451571Y39114D01*
X448209Y40507D01*
X445637Y43079D01*
X444244Y46441D01*
X444244Y50079D01*
X445637Y53441D01*
X448209Y56013D01*
X451571Y57406D01*
X455209Y57406D01*
X458571Y56013D01*
X461143Y53441D01*
X462536Y50079D01*
X462536Y46441D01*
X461143Y43079D01*
X458571Y40507D01*
X455209Y39114D01*
X451571Y39114D01*
G37*
%LPD*%
%LPC*%
G36*
X45171Y39114D02*
X45171Y39114D01*
X41809Y40507D01*
X39237Y43079D01*
X37844Y46441D01*
X37844Y50079D01*
X39237Y53441D01*
X41809Y56013D01*
X45171Y57406D01*
X48809Y57406D01*
X52171Y56013D01*
X54743Y53441D01*
X56136Y50079D01*
X56136Y46441D01*
X54743Y43079D01*
X52171Y40507D01*
X48809Y39114D01*
X45171Y39114D01*
G37*
%LPD*%
%LPC*%
G36*
X19771Y39114D02*
X19771Y39114D01*
X16409Y40507D01*
X13837Y43079D01*
X12444Y46441D01*
X12444Y50079D01*
X13837Y53441D01*
X16409Y56013D01*
X19771Y57406D01*
X23409Y57406D01*
X26771Y56013D01*
X29343Y53441D01*
X30736Y50079D01*
X30736Y46441D01*
X29343Y43079D01*
X26771Y40507D01*
X23409Y39114D01*
X19771Y39114D01*
G37*
%LPD*%
%LPC*%
G36*
X45171Y13714D02*
X45171Y13714D01*
X41809Y15107D01*
X39237Y17679D01*
X37844Y21041D01*
X37844Y24679D01*
X39237Y28041D01*
X41809Y30613D01*
X45171Y32006D01*
X48809Y32006D01*
X52171Y30613D01*
X54743Y28041D01*
X56136Y24679D01*
X56136Y21041D01*
X54743Y17679D01*
X52171Y15107D01*
X48809Y13714D01*
X45171Y13714D01*
G37*
%LPD*%
%LPC*%
G36*
X476971Y216914D02*
X476971Y216914D01*
X473609Y218307D01*
X471037Y220879D01*
X469644Y224241D01*
X469644Y227879D01*
X471037Y231241D01*
X473609Y233813D01*
X476971Y235206D01*
X480609Y235206D01*
X483971Y233813D01*
X486543Y231241D01*
X487936Y227879D01*
X487936Y224241D01*
X486543Y220879D01*
X483971Y218307D01*
X480609Y216914D01*
X476971Y216914D01*
G37*
%LPD*%
%LPC*%
G36*
X19771Y13714D02*
X19771Y13714D01*
X16409Y15107D01*
X13837Y17679D01*
X12444Y21041D01*
X12444Y24679D01*
X13837Y28041D01*
X16409Y30613D01*
X19771Y32006D01*
X23409Y32006D01*
X26771Y30613D01*
X29343Y28041D01*
X30736Y24679D01*
X30736Y21041D01*
X29343Y17679D01*
X26771Y15107D01*
X23409Y13714D01*
X19771Y13714D01*
G37*
%LPD*%
%LPC*%
G36*
X19771Y216914D02*
X19771Y216914D01*
X16409Y218307D01*
X13837Y220879D01*
X12444Y224241D01*
X12444Y227879D01*
X13837Y231241D01*
X16409Y233813D01*
X19771Y235206D01*
X23409Y235206D01*
X26771Y233813D01*
X29343Y231241D01*
X30736Y227879D01*
X30736Y224241D01*
X29343Y220879D01*
X26771Y218307D01*
X23409Y216914D01*
X19771Y216914D01*
G37*
%LPD*%
%LPC*%
G36*
X476971Y13714D02*
X476971Y13714D01*
X473609Y15107D01*
X471037Y17679D01*
X469644Y21041D01*
X469644Y24679D01*
X471037Y28041D01*
X473609Y30613D01*
X476971Y32006D01*
X480609Y32006D01*
X483971Y30613D01*
X486543Y28041D01*
X487936Y24679D01*
X487936Y21041D01*
X486543Y17679D01*
X483971Y15107D01*
X480609Y13714D01*
X476971Y13714D01*
G37*
%LPD*%
%LPC*%
G36*
X451571Y13714D02*
X451571Y13714D01*
X448209Y15107D01*
X445637Y17679D01*
X444244Y21041D01*
X444244Y24679D01*
X445637Y28041D01*
X448209Y30613D01*
X451571Y32006D01*
X455209Y32006D01*
X458571Y30613D01*
X461143Y28041D01*
X462536Y24679D01*
X462536Y21041D01*
X461143Y17679D01*
X458571Y15107D01*
X455209Y13714D01*
X451571Y13714D01*
G37*
%LPD*%
%LPC*%
G36*
X476971Y191514D02*
X476971Y191514D01*
X473609Y192907D01*
X471037Y195479D01*
X469644Y198841D01*
X469644Y202479D01*
X471037Y205841D01*
X473609Y208413D01*
X476971Y209806D01*
X480609Y209806D01*
X483971Y208413D01*
X486543Y205841D01*
X487936Y202479D01*
X487936Y198841D01*
X486543Y195479D01*
X483971Y192907D01*
X480609Y191514D01*
X476971Y191514D01*
G37*
%LPD*%
%LPC*%
G36*
X451571Y191514D02*
X451571Y191514D01*
X448209Y192907D01*
X445637Y195479D01*
X444244Y198841D01*
X444244Y202479D01*
X445637Y205841D01*
X448209Y208413D01*
X451571Y209806D01*
X455209Y209806D01*
X458571Y208413D01*
X461143Y205841D01*
X462536Y202479D01*
X462536Y198841D01*
X461143Y195479D01*
X458571Y192907D01*
X455209Y191514D01*
X451571Y191514D01*
G37*
%LPD*%
%LPC*%
G36*
X45171Y191514D02*
X45171Y191514D01*
X41809Y192907D01*
X39237Y195479D01*
X37844Y198841D01*
X37844Y202479D01*
X39237Y205841D01*
X41809Y208413D01*
X45171Y209806D01*
X48809Y209806D01*
X52171Y208413D01*
X54743Y205841D01*
X56136Y202479D01*
X56136Y198841D01*
X54743Y195479D01*
X52171Y192907D01*
X48809Y191514D01*
X45171Y191514D01*
G37*
%LPD*%
%LPC*%
G36*
X45171Y166114D02*
X45171Y166114D01*
X41809Y167507D01*
X39237Y170079D01*
X37844Y173441D01*
X37844Y177079D01*
X39237Y180441D01*
X41809Y183013D01*
X45171Y184406D01*
X48809Y184406D01*
X52171Y183013D01*
X54743Y180441D01*
X56136Y177079D01*
X56136Y173441D01*
X54743Y170079D01*
X52171Y167507D01*
X48809Y166114D01*
X45171Y166114D01*
G37*
%LPD*%
%LPC*%
G36*
X19771Y166114D02*
X19771Y166114D01*
X16409Y167507D01*
X13837Y170079D01*
X12444Y173441D01*
X12444Y177079D01*
X13837Y180441D01*
X16409Y183013D01*
X19771Y184406D01*
X23409Y184406D01*
X26771Y183013D01*
X29343Y180441D01*
X30736Y177079D01*
X30736Y173441D01*
X29343Y170079D01*
X26771Y167507D01*
X23409Y166114D01*
X19771Y166114D01*
G37*
%LPD*%
%LPC*%
G36*
X476971Y166114D02*
X476971Y166114D01*
X473609Y167507D01*
X471037Y170079D01*
X469644Y173441D01*
X469644Y177079D01*
X471037Y180441D01*
X473609Y183013D01*
X476971Y184406D01*
X480609Y184406D01*
X483971Y183013D01*
X486543Y180441D01*
X487936Y177079D01*
X487936Y173441D01*
X486543Y170079D01*
X483971Y167507D01*
X480609Y166114D01*
X476971Y166114D01*
G37*
%LPD*%
%LPC*%
G36*
X451571Y166114D02*
X451571Y166114D01*
X448209Y167507D01*
X445637Y170079D01*
X444244Y173441D01*
X444244Y177079D01*
X445637Y180441D01*
X448209Y183013D01*
X451571Y184406D01*
X455209Y184406D01*
X458571Y183013D01*
X461143Y180441D01*
X462536Y177079D01*
X462536Y173441D01*
X461143Y170079D01*
X458571Y167507D01*
X455209Y166114D01*
X451571Y166114D01*
G37*
%LPD*%
%LPC*%
G36*
X19771Y191514D02*
X19771Y191514D01*
X16409Y192907D01*
X13837Y195479D01*
X12444Y198841D01*
X12444Y202479D01*
X13837Y205841D01*
X16409Y208413D01*
X19771Y209806D01*
X23409Y209806D01*
X26771Y208413D01*
X29343Y205841D01*
X30736Y202479D01*
X30736Y198841D01*
X29343Y195479D01*
X26771Y192907D01*
X23409Y191514D01*
X19771Y191514D01*
G37*
%LPD*%
%LPC*%
G36*
X476971Y140714D02*
X476971Y140714D01*
X473609Y142107D01*
X471037Y144679D01*
X469644Y148041D01*
X469644Y151679D01*
X471037Y155041D01*
X473609Y157613D01*
X476971Y159006D01*
X480609Y159006D01*
X483971Y157613D01*
X486543Y155041D01*
X487936Y151679D01*
X487936Y148041D01*
X486543Y144679D01*
X483971Y142107D01*
X480609Y140714D01*
X476971Y140714D01*
G37*
%LPD*%
%LPC*%
G36*
X451571Y140714D02*
X451571Y140714D01*
X448209Y142107D01*
X445637Y144679D01*
X444244Y148041D01*
X444244Y151679D01*
X445637Y155041D01*
X448209Y157613D01*
X451571Y159006D01*
X455209Y159006D01*
X458571Y157613D01*
X461143Y155041D01*
X462536Y151679D01*
X462536Y148041D01*
X461143Y144679D01*
X458571Y142107D01*
X455209Y140714D01*
X451571Y140714D01*
G37*
%LPD*%
%LPC*%
G36*
X45171Y140714D02*
X45171Y140714D01*
X41809Y142107D01*
X39237Y144679D01*
X37844Y148041D01*
X37844Y151679D01*
X39237Y155041D01*
X41809Y157613D01*
X45171Y159006D01*
X48809Y159006D01*
X52171Y157613D01*
X54743Y155041D01*
X56136Y151679D01*
X56136Y148041D01*
X54743Y144679D01*
X52171Y142107D01*
X48809Y140714D01*
X45171Y140714D01*
G37*
%LPD*%
%LPC*%
G36*
X19771Y140714D02*
X19771Y140714D01*
X16409Y142107D01*
X13837Y144679D01*
X12444Y148041D01*
X12444Y151679D01*
X13837Y155041D01*
X16409Y157613D01*
X19771Y159006D01*
X23409Y159006D01*
X26771Y157613D01*
X29343Y155041D01*
X30736Y151679D01*
X30736Y148041D01*
X29343Y144679D01*
X26771Y142107D01*
X23409Y140714D01*
X19771Y140714D01*
G37*
%LPD*%
%LPC*%
G36*
X476971Y115314D02*
X476971Y115314D01*
X473609Y116707D01*
X471037Y119279D01*
X469644Y122641D01*
X469644Y126279D01*
X471037Y129641D01*
X473609Y132213D01*
X476971Y133606D01*
X480609Y133606D01*
X483971Y132213D01*
X486543Y129641D01*
X487936Y126279D01*
X487936Y122641D01*
X486543Y119279D01*
X483971Y116707D01*
X480609Y115314D01*
X476971Y115314D01*
G37*
%LPD*%
%LPC*%
G36*
X451571Y115314D02*
X451571Y115314D01*
X448209Y116707D01*
X445637Y119279D01*
X444244Y122641D01*
X444244Y126279D01*
X445637Y129641D01*
X448209Y132213D01*
X451571Y133606D01*
X455209Y133606D01*
X458571Y132213D01*
X461143Y129641D01*
X462536Y126279D01*
X462536Y122641D01*
X461143Y119279D01*
X458571Y116707D01*
X455209Y115314D01*
X451571Y115314D01*
G37*
%LPD*%
%LPC*%
G36*
X45171Y115314D02*
X45171Y115314D01*
X41809Y116707D01*
X39237Y119279D01*
X37844Y122641D01*
X37844Y126279D01*
X39237Y129641D01*
X41809Y132213D01*
X45171Y133606D01*
X48809Y133606D01*
X52171Y132213D01*
X54743Y129641D01*
X56136Y126279D01*
X56136Y122641D01*
X54743Y119279D01*
X52171Y116707D01*
X48809Y115314D01*
X45171Y115314D01*
G37*
%LPD*%
%LPC*%
G36*
X19771Y115314D02*
X19771Y115314D01*
X16409Y116707D01*
X13837Y119279D01*
X12444Y122641D01*
X12444Y126279D01*
X13837Y129641D01*
X16409Y132213D01*
X19771Y133606D01*
X23409Y133606D01*
X26771Y132213D01*
X29343Y129641D01*
X30736Y126279D01*
X30736Y122641D01*
X29343Y119279D01*
X26771Y116707D01*
X23409Y115314D01*
X19771Y115314D01*
G37*
%LPD*%
%LPC*%
G36*
X476971Y89914D02*
X476971Y89914D01*
X473609Y91307D01*
X471037Y93879D01*
X469644Y97241D01*
X469644Y100879D01*
X471037Y104241D01*
X473609Y106813D01*
X476971Y108206D01*
X480609Y108206D01*
X483971Y106813D01*
X486543Y104241D01*
X487936Y100879D01*
X487936Y97241D01*
X486543Y93879D01*
X483971Y91307D01*
X480609Y89914D01*
X476971Y89914D01*
G37*
%LPD*%
%LPC*%
G36*
X451571Y89914D02*
X451571Y89914D01*
X448209Y91307D01*
X445637Y93879D01*
X444244Y97241D01*
X444244Y100879D01*
X445637Y104241D01*
X448209Y106813D01*
X451571Y108206D01*
X455209Y108206D01*
X458571Y106813D01*
X461143Y104241D01*
X462536Y100879D01*
X462536Y97241D01*
X461143Y93879D01*
X458571Y91307D01*
X455209Y89914D01*
X451571Y89914D01*
G37*
%LPD*%
%LPC*%
G36*
X45171Y89914D02*
X45171Y89914D01*
X41809Y91307D01*
X39237Y93879D01*
X37844Y97241D01*
X37844Y100879D01*
X39237Y104241D01*
X41809Y106813D01*
X45171Y108206D01*
X48809Y108206D01*
X52171Y106813D01*
X54743Y104241D01*
X56136Y100879D01*
X56136Y97241D01*
X54743Y93879D01*
X52171Y91307D01*
X48809Y89914D01*
X45171Y89914D01*
G37*
%LPD*%
%LPC*%
G36*
X19771Y89914D02*
X19771Y89914D01*
X16409Y91307D01*
X13837Y93879D01*
X12444Y97241D01*
X12444Y100879D01*
X13837Y104241D01*
X16409Y106813D01*
X19771Y108206D01*
X23409Y108206D01*
X26771Y106813D01*
X29343Y104241D01*
X30736Y100879D01*
X30736Y97241D01*
X29343Y93879D01*
X26771Y91307D01*
X23409Y89914D01*
X19771Y89914D01*
G37*
%LPD*%
%LPC*%
G36*
X476971Y64514D02*
X476971Y64514D01*
X473609Y65907D01*
X471037Y68479D01*
X469644Y71841D01*
X469644Y75479D01*
X471037Y78841D01*
X473609Y81413D01*
X476971Y82806D01*
X480609Y82806D01*
X483971Y81413D01*
X486543Y78841D01*
X487936Y75479D01*
X487936Y71841D01*
X486543Y68479D01*
X483971Y65907D01*
X480609Y64514D01*
X476971Y64514D01*
G37*
%LPD*%
%LPC*%
G36*
X451571Y64514D02*
X451571Y64514D01*
X448209Y65907D01*
X445637Y68479D01*
X444244Y71841D01*
X444244Y75479D01*
X445637Y78841D01*
X448209Y81413D01*
X451571Y82806D01*
X455209Y82806D01*
X458571Y81413D01*
X461143Y78841D01*
X462536Y75479D01*
X462536Y71841D01*
X461143Y68479D01*
X458571Y65907D01*
X455209Y64514D01*
X451571Y64514D01*
G37*
%LPD*%
%LPC*%
G36*
X45171Y64514D02*
X45171Y64514D01*
X41809Y65907D01*
X39237Y68479D01*
X37844Y71841D01*
X37844Y75479D01*
X39237Y78841D01*
X41809Y81413D01*
X45171Y82806D01*
X48809Y82806D01*
X52171Y81413D01*
X54743Y78841D01*
X56136Y75479D01*
X56136Y71841D01*
X54743Y68479D01*
X52171Y65907D01*
X48809Y64514D01*
X45171Y64514D01*
G37*
%LPD*%
%LPC*%
G36*
X179715Y104645D02*
X179715Y104645D01*
X177035Y107325D01*
X177035Y111115D01*
X179715Y113795D01*
X183505Y113795D01*
X185824Y111476D01*
X185898Y111423D01*
X185967Y111363D01*
X185998Y111351D01*
X186024Y111332D01*
X186111Y111305D01*
X186196Y111271D01*
X186236Y111267D01*
X186259Y111260D01*
X186291Y111261D01*
X186362Y111253D01*
X212418Y111253D01*
X212508Y111267D01*
X212599Y111275D01*
X212629Y111287D01*
X212661Y111292D01*
X212741Y111335D01*
X212825Y111371D01*
X212857Y111397D01*
X212878Y111408D01*
X212900Y111431D01*
X212956Y111476D01*
X215275Y113795D01*
X219065Y113795D01*
X221745Y111115D01*
X221745Y107325D01*
X219065Y104645D01*
X215275Y104645D01*
X212956Y106964D01*
X212882Y107017D01*
X212813Y107077D01*
X212782Y107089D01*
X212756Y107108D01*
X212669Y107135D01*
X212584Y107169D01*
X212544Y107173D01*
X212521Y107180D01*
X212489Y107179D01*
X212418Y107187D01*
X186362Y107187D01*
X186272Y107173D01*
X186181Y107165D01*
X186151Y107153D01*
X186119Y107148D01*
X186039Y107105D01*
X185955Y107069D01*
X185923Y107043D01*
X185902Y107032D01*
X185880Y107009D01*
X185824Y106964D01*
X183505Y104645D01*
X179715Y104645D01*
G37*
%LPD*%
%LPC*%
G36*
X480313Y252983D02*
X480313Y252983D01*
X480313Y261876D01*
X486999Y261876D01*
X487646Y261703D01*
X488225Y261368D01*
X488698Y260895D01*
X489033Y260316D01*
X489206Y259669D01*
X489206Y252983D01*
X480313Y252983D01*
G37*
%LPD*%
%LPC*%
G36*
X468374Y252983D02*
X468374Y252983D01*
X468374Y259669D01*
X468547Y260316D01*
X468882Y260895D01*
X469355Y261368D01*
X469934Y261703D01*
X470581Y261876D01*
X477267Y261876D01*
X477267Y252983D01*
X468374Y252983D01*
G37*
%LPD*%
%LPC*%
G36*
X480313Y241044D02*
X480313Y241044D01*
X480313Y249937D01*
X489206Y249937D01*
X489206Y243251D01*
X489033Y242604D01*
X488698Y242025D01*
X488225Y241552D01*
X487646Y241217D01*
X486999Y241044D01*
X480313Y241044D01*
G37*
%LPD*%
%LPC*%
G36*
X470581Y241044D02*
X470581Y241044D01*
X469934Y241217D01*
X469355Y241552D01*
X468882Y242025D01*
X468547Y242604D01*
X468374Y243251D01*
X468374Y249937D01*
X477267Y249937D01*
X477267Y241044D01*
X470581Y241044D01*
G37*
%LPD*%
%LPC*%
G36*
X48513Y227583D02*
X48513Y227583D01*
X48513Y236364D01*
X49429Y236219D01*
X50988Y235713D01*
X52449Y234968D01*
X53775Y234005D01*
X54935Y232845D01*
X55898Y231519D01*
X56643Y230058D01*
X57149Y228499D01*
X57294Y227583D01*
X48513Y227583D01*
G37*
%LPD*%
%LPC*%
G36*
X36686Y227583D02*
X36686Y227583D01*
X36831Y228499D01*
X37337Y230058D01*
X38082Y231519D01*
X39045Y232845D01*
X40205Y234005D01*
X41531Y234968D01*
X42992Y235713D01*
X44551Y236219D01*
X45467Y236364D01*
X45467Y227583D01*
X36686Y227583D01*
G37*
%LPD*%
%LPC*%
G36*
X48513Y224537D02*
X48513Y224537D01*
X57294Y224537D01*
X57149Y223621D01*
X56643Y222062D01*
X55898Y220601D01*
X54935Y219275D01*
X53775Y218115D01*
X52449Y217152D01*
X50988Y216407D01*
X49429Y215901D01*
X48513Y215756D01*
X48513Y224537D01*
G37*
%LPD*%
%LPC*%
G36*
X44551Y215901D02*
X44551Y215901D01*
X42992Y216407D01*
X41531Y217152D01*
X40205Y218115D01*
X39045Y219275D01*
X38082Y220601D01*
X37337Y222062D01*
X36831Y223621D01*
X36686Y224537D01*
X45467Y224537D01*
X45467Y215756D01*
X44551Y215901D01*
G37*
%LPD*%
%LPC*%
G36*
X478789Y251459D02*
X478789Y251459D01*
X478789Y251461D01*
X478791Y251461D01*
X478791Y251459D01*
X478789Y251459D01*
G37*
%LPD*%
%LPC*%
G36*
X46989Y226059D02*
X46989Y226059D01*
X46989Y226061D01*
X46991Y226061D01*
X46991Y226059D01*
X46989Y226059D01*
G37*
%LPD*%
D10*
X46990Y251460D03*
D11*
X21590Y251460D03*
X46990Y226060D03*
X21590Y226060D03*
X46990Y200660D03*
X21590Y200660D03*
X46990Y175260D03*
X21590Y175260D03*
X46990Y149860D03*
X21590Y149860D03*
X46990Y124460D03*
X21590Y124460D03*
X46990Y99060D03*
X21590Y99060D03*
X46990Y73660D03*
X21590Y73660D03*
X46990Y48260D03*
X21590Y48260D03*
X46990Y22860D03*
X21590Y22860D03*
D10*
X478790Y251460D03*
D11*
X453390Y251460D03*
X478790Y226060D03*
X453390Y226060D03*
X478790Y200660D03*
X453390Y200660D03*
X478790Y175260D03*
X453390Y175260D03*
X478790Y149860D03*
X453390Y149860D03*
X478790Y124460D03*
X453390Y124460D03*
X478790Y99060D03*
X453390Y99060D03*
X478790Y73660D03*
X453390Y73660D03*
X478790Y48260D03*
X453390Y48260D03*
X478790Y22860D03*
X453390Y22860D03*
D12*
X181610Y109220D03*
D13*
X217170Y109220D01*
D12*
X217170Y109220D03*
X320040Y189230D03*
D13*
X265430Y189230D01*
D12*
X265430Y189230D03*
X320040Y175260D03*
D13*
X265430Y175260D01*
D12*
X265430Y175260D03*
X181610Y88900D03*
D13*
X228600Y88900D01*
X260985Y121285D01*
X260985Y127000D02*
X260985Y131445D01*
X260985Y127000D02*
X260985Y121285D01*
X260985Y131445D02*
X260985Y139065D01*
X261620Y139700D01*
D12*
X261620Y139700D03*
M02*
