G04 EAGLE Gerber RS-274X export*
G75*
%MOMM*%
%FSLAX34Y34*%
%LPD*%
%INSoldermask Top*%
%IPPOS*%
%AMOC8*
5,1,8,0,0,1.08239X$1,22.5*%
G01*
%ADD10R,1.778200X1.778200*%
%ADD11C,1.778200*%
%ADD12R,2.143200X2.003200*%
%ADD13R,0.503200X1.103200*%


D10*
X46990Y251460D03*
D11*
X21590Y251460D03*
X46990Y226060D03*
X21590Y226060D03*
X46990Y200660D03*
X21590Y200660D03*
X46990Y175260D03*
X21590Y175260D03*
X46990Y149860D03*
X21590Y149860D03*
X46990Y124460D03*
X21590Y124460D03*
X46990Y99060D03*
X21590Y99060D03*
X46990Y73660D03*
X21590Y73660D03*
X46990Y48260D03*
X21590Y48260D03*
X46990Y22860D03*
X21590Y22860D03*
D10*
X478790Y251460D03*
D11*
X453390Y251460D03*
X478790Y226060D03*
X453390Y226060D03*
X478790Y200660D03*
X453390Y200660D03*
X478790Y175260D03*
X453390Y175260D03*
X478790Y149860D03*
X453390Y149860D03*
X478790Y124460D03*
X453390Y124460D03*
X478790Y99060D03*
X453390Y99060D03*
X478790Y73660D03*
X453390Y73660D03*
X478790Y48260D03*
X453390Y48260D03*
X478790Y22860D03*
X453390Y22860D03*
D12*
X308162Y126148D03*
D13*
X205912Y153648D03*
X210912Y153648D03*
X215912Y153648D03*
X220912Y153648D03*
X225912Y153648D03*
X230912Y153648D03*
X235912Y153648D03*
X240912Y153648D03*
X245912Y153648D03*
X250912Y153648D03*
X255912Y153648D03*
X260912Y153648D03*
X265912Y153648D03*
X270912Y153648D03*
X275912Y153648D03*
X280912Y153648D03*
X285912Y153648D03*
X290912Y153648D03*
D12*
X188732Y126178D03*
M02*
